<?xml version="1.0" encoding="utf-8" standalone="no"?>
<!DOCTYPE svg PUBLIC "-//W3C//DTD SVG 1.1//EN"
  "http://www.w3.org/Graphics/SVG/1.1/DTD/svg11.dtd">
<!-- Created with matplotlib (https://matplotlib.org/) -->
<svg height="622.28875pt" version="1.1" viewBox="0 0 621.84375 622.28875" width="621.84375pt" xmlns="http://www.w3.org/2000/svg" xmlns:xlink="http://www.w3.org/1999/xlink">
 <metadata>
  <rdf:RDF xmlns:cc="http://creativecommons.org/ns#" xmlns:dc="http://purl.org/dc/elements/1.1/" xmlns:rdf="http://www.w3.org/1999/02/22-rdf-syntax-ns#">
   <cc:Work>
    <dc:type rdf:resource="http://purl.org/dc/dcmitype/StillImage"/>
    <dc:date>2021-04-19T12:14:44.456778</dc:date>
    <dc:format>image/svg+xml</dc:format>
    <dc:creator>
     <cc:Agent>
      <dc:title>Matplotlib v3.3.4, https://matplotlib.org/</dc:title>
     </cc:Agent>
    </dc:creator>
   </cc:Work>
  </rdf:RDF>
 </metadata>
 <defs>
  <style type="text/css">*{stroke-linecap:butt;stroke-linejoin:round;}</style>
 </defs>
 <g id="figure_1">
  <g id="patch_1">
   <path d="M 0 622.28875 
L 621.84375 622.28875 
L 621.84375 0 
L 0 0 
z
" style="fill:#ffffff;"/>
  </g>
  <g id="axes_1">
   <g id="patch_2">
    <path d="M 56.64375 280.396875 
L 310.280114 280.396875 
L 310.280114 28.396875 
L 56.64375 28.396875 
z
" style="fill:#ffffff;"/>
   </g>
   <g id="PolyCollection_1">
    <path clip-path="url(#pd581c7bd5e)" d="M 59.313606 42.29752 
L 59.313606 198.049778 
L 61.983463 181.791714 
L 64.653319 151.063972 
L 67.323176 112.369778 
L 69.993032 96.924617 
L 72.662889 83.105262 
L 75.332745 76.358165 
L 78.002602 71.155585 
L 80.672458 89.283327 
L 83.342315 71.968488 
L 86.012171 62.945262 
L 88.682028 67.903972 
L 91.351884 76.439456 
L 94.02174 63.433004 
L 96.691597 66.684617 
L 99.361453 59.77494 
L 102.03131 56.360746 
L 104.701166 71.399456 
L 107.371023 59.043327 
L 110.040879 55.547843 
L 112.710736 54.084617 
L 115.380592 58.636875 
L 118.050449 56.929778 
L 120.720305 57.905262 
L 123.390161 54.81623 
L 126.060018 54.328488 
L 128.729874 55.710423 
L 131.399731 62.29494 
L 134.069587 54.247198 
L 136.739444 57.011069 
L 136.766142 57.011069 
L 139.4093 54.165907 
L 142.079157 71.074294 
L 144.749013 55.141391 
L 147.41887 57.661391 
L 150.088726 54.97881 
L 152.758583 53.271714 
L 155.428439 51.076875 
L 158.098295 52.865262 
L 160.768152 58.067843 
L 163.438008 54.247198 
L 166.107865 61.156875 
L 168.777721 60.669133 
L 171.447578 60.100101 
L 174.117434 67.41623 
L 176.787291 56.116875 
L 179.457147 56.035585 
L 182.127004 56.442036 
L 184.79686 51.971069 
L 187.466717 55.629133 
L 190.136573 56.848488 
L 192.806429 52.865262 
L 195.476286 64.164617 
L 198.146142 55.629133 
L 200.815999 62.37623 
L 203.485855 55.141391 
L 206.155712 50.345262 
L 208.825568 51.320746 
L 211.495425 48.556875 
L 214.165281 51.727198 
L 216.835138 51.645907 
L 216.861836 51.645907 
L 219.504994 50.020101 
L 222.17485 49.532359 
L 224.844707 55.141391 
L 227.514563 49.77623 
L 230.18442 51.971069 
L 232.854276 57.986552 
L 235.524133 50.995585 
L 238.193989 46.687198 
L 240.863846 46.931069 
L 243.533702 60.425262 
L 246.203559 46.768488 
L 248.873415 48.556875 
L 251.543272 52.052359 
L 254.213128 49.532359 
L 256.882984 49.532359 
L 259.552841 54.653649 
L 262.222697 48.313004 
L 264.892554 52.946552 
L 267.56241 51.889778 
L 270.232267 56.279456 
L 272.902123 58.718165 
L 275.57198 50.020101 
L 278.241836 50.670423 
L 280.911693 48.475585 
L 283.581549 53.109133 
L 286.251406 49.93881 
L 288.921262 48.963327 
L 291.591118 53.190423 
L 294.260975 45.874294 
L 296.930831 48.882036 
L 296.95753 48.882036 
L 296.95753 42.703972 
L 296.95753 42.703972 
L 296.930831 42.703972 
L 294.260975 42.37881 
L 291.591118 41.647198 
L 288.921262 41.728488 
L 286.251406 43.273004 
L 283.581549 42.053649 
L 280.911693 41.484617 
L 278.241836 41.322036 
L 275.57198 41.891069 
L 272.902123 41.484617 
L 270.232267 42.37881 
L 267.56241 42.13494 
L 264.892554 41.484617 
L 262.222697 42.29752 
L 259.552841 44.004617 
L 256.882984 43.679456 
L 254.213128 42.29752 
L 251.543272 42.785262 
L 248.873415 42.37881 
L 246.203559 42.053649 
L 243.533702 42.13494 
L 240.863846 42.785262 
L 238.193989 43.029133 
L 235.524133 42.541391 
L 232.854276 43.110423 
L 230.18442 42.13494 
L 227.514563 42.29752 
L 224.844707 41.565907 
L 222.17485 41.891069 
L 219.504994 41.728488 
L 216.861836 42.13494 
L 216.835138 42.13494 
L 214.165281 43.191714 
L 211.495425 42.866552 
L 208.825568 43.760746 
L 206.155712 43.029133 
L 203.485855 42.622681 
L 200.815999 43.191714 
L 198.146142 43.273004 
L 195.476286 42.947843 
L 192.806429 43.191714 
L 190.136573 42.541391 
L 187.466717 42.21623 
L 184.79686 42.37881 
L 182.127004 42.866552 
L 179.457147 43.110423 
L 176.787291 41.159456 
L 174.117434 42.37881 
L 171.447578 42.13494 
L 168.777721 41.078165 
L 166.107865 41.322036 
L 163.438008 42.13494 
L 160.768152 43.760746 
L 158.098295 41.322036 
L 155.428439 41.809778 
L 152.758583 41.972359 
L 150.088726 43.760746 
L 147.41887 42.460101 
L 144.749013 42.21623 
L 142.079157 43.760746 
L 139.4093 42.703972 
L 136.766142 43.679456 
L 136.739444 43.679456 
L 134.069587 45.061391 
L 131.399731 42.622681 
L 128.729874 43.760746 
L 126.060018 42.866552 
L 123.390161 44.167198 
L 120.720305 44.248488 
L 118.050449 43.679456 
L 115.380592 46.443327 
L 112.710736 44.248488 
L 110.040879 44.329778 
L 107.371023 42.460101 
L 104.701166 42.13494 
L 102.03131 42.460101 
L 99.361453 41.565907 
L 96.691597 42.460101 
L 94.02174 42.37881 
L 91.351884 42.703972 
L 88.682028 44.004617 
L 86.012171 44.329778 
L 83.342315 44.573649 
L 80.672458 44.73623 
L 78.002602 44.004617 
L 75.332745 44.411069 
L 72.662889 44.248488 
L 69.993032 44.248488 
L 67.323176 44.980101 
L 64.653319 46.036875 
L 61.983463 45.467843 
L 59.313606 42.29752 
z
" style="fill:#0000ff;fill-opacity:0.35;"/>
   </g>
   <g id="matplotlib.axis_1">
    <g id="xtick_1">
     <g id="line2d_1">
      <defs>
       <path d="M 0 0 
L 0 3.5 
" id="m392b59a4c1" style="stroke:#000000;stroke-width:0.8;"/>
      </defs>
      <g>
       <use style="stroke:#000000;stroke-width:0.8;" x="56.64375" xlink:href="#m392b59a4c1" y="280.396875"/>
      </g>
     </g>
     <g id="text_1">
      <!-- 0 -->
      <g transform="translate(53.4625 294.995312)scale(0.1 -0.1)">
       <defs>
        <path d="M 31.78125 66.40625 
Q 24.171875 66.40625 20.328125 58.90625 
Q 16.5 51.421875 16.5 36.375 
Q 16.5 21.390625 20.328125 13.890625 
Q 24.171875 6.390625 31.78125 6.390625 
Q 39.453125 6.390625 43.28125 13.890625 
Q 47.125 21.390625 47.125 36.375 
Q 47.125 51.421875 43.28125 58.90625 
Q 39.453125 66.40625 31.78125 66.40625 
z
M 31.78125 74.21875 
Q 44.046875 74.21875 50.515625 64.515625 
Q 56.984375 54.828125 56.984375 36.375 
Q 56.984375 17.96875 50.515625 8.265625 
Q 44.046875 -1.421875 31.78125 -1.421875 
Q 19.53125 -1.421875 13.0625 8.265625 
Q 6.59375 17.96875 6.59375 36.375 
Q 6.59375 54.828125 13.0625 64.515625 
Q 19.53125 74.21875 31.78125 74.21875 
z
" id="DejaVuSans-48"/>
       </defs>
       <use xlink:href="#DejaVuSans-48"/>
      </g>
     </g>
    </g>
    <g id="xtick_2">
     <g id="line2d_2">
      <g>
       <use style="stroke:#000000;stroke-width:0.8;" x="110.040879" xlink:href="#m392b59a4c1" y="280.396875"/>
      </g>
     </g>
     <g id="text_2">
      <!-- 2000 -->
      <g transform="translate(97.315879 294.995312)scale(0.1 -0.1)">
       <defs>
        <path d="M 19.1875 8.296875 
L 53.609375 8.296875 
L 53.609375 0 
L 7.328125 0 
L 7.328125 8.296875 
Q 12.9375 14.109375 22.625 23.890625 
Q 32.328125 33.6875 34.8125 36.53125 
Q 39.546875 41.84375 41.421875 45.53125 
Q 43.3125 49.21875 43.3125 52.78125 
Q 43.3125 58.59375 39.234375 62.25 
Q 35.15625 65.921875 28.609375 65.921875 
Q 23.96875 65.921875 18.8125 64.3125 
Q 13.671875 62.703125 7.8125 59.421875 
L 7.8125 69.390625 
Q 13.765625 71.78125 18.9375 73 
Q 24.125 74.21875 28.421875 74.21875 
Q 39.75 74.21875 46.484375 68.546875 
Q 53.21875 62.890625 53.21875 53.421875 
Q 53.21875 48.921875 51.53125 44.890625 
Q 49.859375 40.875 45.40625 35.40625 
Q 44.1875 33.984375 37.640625 27.21875 
Q 31.109375 20.453125 19.1875 8.296875 
z
" id="DejaVuSans-50"/>
       </defs>
       <use xlink:href="#DejaVuSans-50"/>
       <use x="63.623047" xlink:href="#DejaVuSans-48"/>
       <use x="127.246094" xlink:href="#DejaVuSans-48"/>
       <use x="190.869141" xlink:href="#DejaVuSans-48"/>
      </g>
     </g>
    </g>
    <g id="xtick_3">
     <g id="line2d_3">
      <g>
       <use style="stroke:#000000;stroke-width:0.8;" x="163.438008" xlink:href="#m392b59a4c1" y="280.396875"/>
      </g>
     </g>
     <g id="text_3">
      <!-- 4000 -->
      <g transform="translate(150.713008 294.995312)scale(0.1 -0.1)">
       <defs>
        <path d="M 37.796875 64.3125 
L 12.890625 25.390625 
L 37.796875 25.390625 
z
M 35.203125 72.90625 
L 47.609375 72.90625 
L 47.609375 25.390625 
L 58.015625 25.390625 
L 58.015625 17.1875 
L 47.609375 17.1875 
L 47.609375 0 
L 37.796875 0 
L 37.796875 17.1875 
L 4.890625 17.1875 
L 4.890625 26.703125 
z
" id="DejaVuSans-52"/>
       </defs>
       <use xlink:href="#DejaVuSans-52"/>
       <use x="63.623047" xlink:href="#DejaVuSans-48"/>
       <use x="127.246094" xlink:href="#DejaVuSans-48"/>
       <use x="190.869141" xlink:href="#DejaVuSans-48"/>
      </g>
     </g>
    </g>
    <g id="xtick_4">
     <g id="line2d_4">
      <g>
       <use style="stroke:#000000;stroke-width:0.8;" x="216.835138" xlink:href="#m392b59a4c1" y="280.396875"/>
      </g>
     </g>
     <g id="text_4">
      <!-- 6000 -->
      <g transform="translate(204.110138 294.995312)scale(0.1 -0.1)">
       <defs>
        <path d="M 33.015625 40.375 
Q 26.375 40.375 22.484375 35.828125 
Q 18.609375 31.296875 18.609375 23.390625 
Q 18.609375 15.53125 22.484375 10.953125 
Q 26.375 6.390625 33.015625 6.390625 
Q 39.65625 6.390625 43.53125 10.953125 
Q 47.40625 15.53125 47.40625 23.390625 
Q 47.40625 31.296875 43.53125 35.828125 
Q 39.65625 40.375 33.015625 40.375 
z
M 52.59375 71.296875 
L 52.59375 62.3125 
Q 48.875 64.0625 45.09375 64.984375 
Q 41.3125 65.921875 37.59375 65.921875 
Q 27.828125 65.921875 22.671875 59.328125 
Q 17.53125 52.734375 16.796875 39.40625 
Q 19.671875 43.65625 24.015625 45.921875 
Q 28.375 48.1875 33.59375 48.1875 
Q 44.578125 48.1875 50.953125 41.515625 
Q 57.328125 34.859375 57.328125 23.390625 
Q 57.328125 12.15625 50.6875 5.359375 
Q 44.046875 -1.421875 33.015625 -1.421875 
Q 20.359375 -1.421875 13.671875 8.265625 
Q 6.984375 17.96875 6.984375 36.375 
Q 6.984375 53.65625 15.1875 63.9375 
Q 23.390625 74.21875 37.203125 74.21875 
Q 40.921875 74.21875 44.703125 73.484375 
Q 48.484375 72.75 52.59375 71.296875 
z
" id="DejaVuSans-54"/>
       </defs>
       <use xlink:href="#DejaVuSans-54"/>
       <use x="63.623047" xlink:href="#DejaVuSans-48"/>
       <use x="127.246094" xlink:href="#DejaVuSans-48"/>
       <use x="190.869141" xlink:href="#DejaVuSans-48"/>
      </g>
     </g>
    </g>
    <g id="xtick_5">
     <g id="line2d_5">
      <g>
       <use style="stroke:#000000;stroke-width:0.8;" x="270.232267" xlink:href="#m392b59a4c1" y="280.396875"/>
      </g>
     </g>
     <g id="text_5">
      <!-- 8000 -->
      <g transform="translate(257.507267 294.995312)scale(0.1 -0.1)">
       <defs>
        <path d="M 31.78125 34.625 
Q 24.75 34.625 20.71875 30.859375 
Q 16.703125 27.09375 16.703125 20.515625 
Q 16.703125 13.921875 20.71875 10.15625 
Q 24.75 6.390625 31.78125 6.390625 
Q 38.8125 6.390625 42.859375 10.171875 
Q 46.921875 13.96875 46.921875 20.515625 
Q 46.921875 27.09375 42.890625 30.859375 
Q 38.875 34.625 31.78125 34.625 
z
M 21.921875 38.8125 
Q 15.578125 40.375 12.03125 44.71875 
Q 8.5 49.078125 8.5 55.328125 
Q 8.5 64.0625 14.71875 69.140625 
Q 20.953125 74.21875 31.78125 74.21875 
Q 42.671875 74.21875 48.875 69.140625 
Q 55.078125 64.0625 55.078125 55.328125 
Q 55.078125 49.078125 51.53125 44.71875 
Q 48 40.375 41.703125 38.8125 
Q 48.828125 37.15625 52.796875 32.3125 
Q 56.78125 27.484375 56.78125 20.515625 
Q 56.78125 9.90625 50.3125 4.234375 
Q 43.84375 -1.421875 31.78125 -1.421875 
Q 19.734375 -1.421875 13.25 4.234375 
Q 6.78125 9.90625 6.78125 20.515625 
Q 6.78125 27.484375 10.78125 32.3125 
Q 14.796875 37.15625 21.921875 38.8125 
z
M 18.3125 54.390625 
Q 18.3125 48.734375 21.84375 45.5625 
Q 25.390625 42.390625 31.78125 42.390625 
Q 38.140625 42.390625 41.71875 45.5625 
Q 45.3125 48.734375 45.3125 54.390625 
Q 45.3125 60.0625 41.71875 63.234375 
Q 38.140625 66.40625 31.78125 66.40625 
Q 25.390625 66.40625 21.84375 63.234375 
Q 18.3125 60.0625 18.3125 54.390625 
z
" id="DejaVuSans-56"/>
       </defs>
       <use xlink:href="#DejaVuSans-56"/>
       <use x="63.623047" xlink:href="#DejaVuSans-48"/>
       <use x="127.246094" xlink:href="#DejaVuSans-48"/>
       <use x="190.869141" xlink:href="#DejaVuSans-48"/>
      </g>
     </g>
    </g>
   </g>
   <g id="matplotlib.axis_2">
    <g id="ytick_1">
     <g id="line2d_6">
      <defs>
       <path d="M 0 0 
L -3.5 0 
" id="ma948718c39" style="stroke:#000000;stroke-width:0.8;"/>
      </defs>
      <g>
       <use style="stroke:#000000;stroke-width:0.8;" x="56.64375" xlink:href="#ma948718c39" y="280.396875"/>
      </g>
     </g>
     <g id="text_6">
      <!-- 40 -->
      <g transform="translate(36.91875 284.196094)scale(0.1 -0.1)">
       <use xlink:href="#DejaVuSans-52"/>
       <use x="63.623047" xlink:href="#DejaVuSans-48"/>
      </g>
     </g>
    </g>
    <g id="ytick_2">
     <g id="line2d_7">
      <g>
       <use style="stroke:#000000;stroke-width:0.8;" x="56.64375" xlink:href="#ma948718c39" y="239.751714"/>
      </g>
     </g>
     <g id="text_7">
      <!-- 50 -->
      <g transform="translate(36.91875 243.550932)scale(0.1 -0.1)">
       <defs>
        <path d="M 10.796875 72.90625 
L 49.515625 72.90625 
L 49.515625 64.59375 
L 19.828125 64.59375 
L 19.828125 46.734375 
Q 21.96875 47.46875 24.109375 47.828125 
Q 26.265625 48.1875 28.421875 48.1875 
Q 40.625 48.1875 47.75 41.5 
Q 54.890625 34.8125 54.890625 23.390625 
Q 54.890625 11.625 47.5625 5.09375 
Q 40.234375 -1.421875 26.90625 -1.421875 
Q 22.3125 -1.421875 17.546875 -0.640625 
Q 12.796875 0.140625 7.71875 1.703125 
L 7.71875 11.625 
Q 12.109375 9.234375 16.796875 8.0625 
Q 21.484375 6.890625 26.703125 6.890625 
Q 35.15625 6.890625 40.078125 11.328125 
Q 45.015625 15.765625 45.015625 23.390625 
Q 45.015625 31 40.078125 35.4375 
Q 35.15625 39.890625 26.703125 39.890625 
Q 22.75 39.890625 18.8125 39.015625 
Q 14.890625 38.140625 10.796875 36.28125 
z
" id="DejaVuSans-53"/>
       </defs>
       <use xlink:href="#DejaVuSans-53"/>
       <use x="63.623047" xlink:href="#DejaVuSans-48"/>
      </g>
     </g>
    </g>
    <g id="ytick_3">
     <g id="line2d_8">
      <g>
       <use style="stroke:#000000;stroke-width:0.8;" x="56.64375" xlink:href="#ma948718c39" y="199.106552"/>
      </g>
     </g>
     <g id="text_8">
      <!-- 60 -->
      <g transform="translate(36.91875 202.905771)scale(0.1 -0.1)">
       <use xlink:href="#DejaVuSans-54"/>
       <use x="63.623047" xlink:href="#DejaVuSans-48"/>
      </g>
     </g>
    </g>
    <g id="ytick_4">
     <g id="line2d_9">
      <g>
       <use style="stroke:#000000;stroke-width:0.8;" x="56.64375" xlink:href="#ma948718c39" y="158.461391"/>
      </g>
     </g>
     <g id="text_9">
      <!-- 70 -->
      <g transform="translate(36.91875 162.26061)scale(0.1 -0.1)">
       <defs>
        <path d="M 8.203125 72.90625 
L 55.078125 72.90625 
L 55.078125 68.703125 
L 28.609375 0 
L 18.3125 0 
L 43.21875 64.59375 
L 8.203125 64.59375 
z
" id="DejaVuSans-55"/>
       </defs>
       <use xlink:href="#DejaVuSans-55"/>
       <use x="63.623047" xlink:href="#DejaVuSans-48"/>
      </g>
     </g>
    </g>
    <g id="ytick_5">
     <g id="line2d_10">
      <g>
       <use style="stroke:#000000;stroke-width:0.8;" x="56.64375" xlink:href="#ma948718c39" y="117.81623"/>
      </g>
     </g>
     <g id="text_10">
      <!-- 80 -->
      <g transform="translate(36.91875 121.615449)scale(0.1 -0.1)">
       <use xlink:href="#DejaVuSans-56"/>
       <use x="63.623047" xlink:href="#DejaVuSans-48"/>
      </g>
     </g>
    </g>
    <g id="ytick_6">
     <g id="line2d_11">
      <g>
       <use style="stroke:#000000;stroke-width:0.8;" x="56.64375" xlink:href="#ma948718c39" y="77.171069"/>
      </g>
     </g>
     <g id="text_11">
      <!-- 90 -->
      <g transform="translate(36.91875 80.970287)scale(0.1 -0.1)">
       <defs>
        <path d="M 10.984375 1.515625 
L 10.984375 10.5 
Q 14.703125 8.734375 18.5 7.8125 
Q 22.3125 6.890625 25.984375 6.890625 
Q 35.75 6.890625 40.890625 13.453125 
Q 46.046875 20.015625 46.78125 33.40625 
Q 43.953125 29.203125 39.59375 26.953125 
Q 35.25 24.703125 29.984375 24.703125 
Q 19.046875 24.703125 12.671875 31.3125 
Q 6.296875 37.9375 6.296875 49.421875 
Q 6.296875 60.640625 12.9375 67.421875 
Q 19.578125 74.21875 30.609375 74.21875 
Q 43.265625 74.21875 49.921875 64.515625 
Q 56.59375 54.828125 56.59375 36.375 
Q 56.59375 19.140625 48.40625 8.859375 
Q 40.234375 -1.421875 26.421875 -1.421875 
Q 22.703125 -1.421875 18.890625 -0.6875 
Q 15.09375 0.046875 10.984375 1.515625 
z
M 30.609375 32.421875 
Q 37.25 32.421875 41.125 36.953125 
Q 45.015625 41.5 45.015625 49.421875 
Q 45.015625 57.28125 41.125 61.84375 
Q 37.25 66.40625 30.609375 66.40625 
Q 23.96875 66.40625 20.09375 61.84375 
Q 16.21875 57.28125 16.21875 49.421875 
Q 16.21875 41.5 20.09375 36.953125 
Q 23.96875 32.421875 30.609375 32.421875 
z
" id="DejaVuSans-57"/>
       </defs>
       <use xlink:href="#DejaVuSans-57"/>
       <use x="63.623047" xlink:href="#DejaVuSans-48"/>
      </g>
     </g>
    </g>
    <g id="ytick_7">
     <g id="line2d_12">
      <g>
       <use style="stroke:#000000;stroke-width:0.8;" x="56.64375" xlink:href="#ma948718c39" y="36.525907"/>
      </g>
     </g>
     <g id="text_12">
      <!-- 100 -->
      <g transform="translate(30.55625 40.325126)scale(0.1 -0.1)">
       <defs>
        <path d="M 12.40625 8.296875 
L 28.515625 8.296875 
L 28.515625 63.921875 
L 10.984375 60.40625 
L 10.984375 69.390625 
L 28.421875 72.90625 
L 38.28125 72.90625 
L 38.28125 8.296875 
L 54.390625 8.296875 
L 54.390625 0 
L 12.40625 0 
z
" id="DejaVuSans-49"/>
       </defs>
       <use xlink:href="#DejaVuSans-49"/>
       <use x="63.623047" xlink:href="#DejaVuSans-48"/>
       <use x="127.246094" xlink:href="#DejaVuSans-48"/>
      </g>
     </g>
    </g>
    <g id="text_13">
     <!-- Trained with T1 -->
     <g transform="translate(22.396875 230.926562)rotate(-90)scale(0.2 -0.2)">
      <defs>
       <path d="M -0.296875 72.90625 
L 61.375 72.90625 
L 61.375 64.59375 
L 35.5 64.59375 
L 35.5 0 
L 25.59375 0 
L 25.59375 64.59375 
L -0.296875 64.59375 
z
" id="DejaVuSans-84"/>
       <path d="M 41.109375 46.296875 
Q 39.59375 47.171875 37.8125 47.578125 
Q 36.03125 48 33.890625 48 
Q 26.265625 48 22.1875 43.046875 
Q 18.109375 38.09375 18.109375 28.8125 
L 18.109375 0 
L 9.078125 0 
L 9.078125 54.6875 
L 18.109375 54.6875 
L 18.109375 46.1875 
Q 20.953125 51.171875 25.484375 53.578125 
Q 30.03125 56 36.53125 56 
Q 37.453125 56 38.578125 55.875 
Q 39.703125 55.765625 41.0625 55.515625 
z
" id="DejaVuSans-114"/>
       <path d="M 34.28125 27.484375 
Q 23.390625 27.484375 19.1875 25 
Q 14.984375 22.515625 14.984375 16.5 
Q 14.984375 11.71875 18.140625 8.90625 
Q 21.296875 6.109375 26.703125 6.109375 
Q 34.1875 6.109375 38.703125 11.40625 
Q 43.21875 16.703125 43.21875 25.484375 
L 43.21875 27.484375 
z
M 52.203125 31.203125 
L 52.203125 0 
L 43.21875 0 
L 43.21875 8.296875 
Q 40.140625 3.328125 35.546875 0.953125 
Q 30.953125 -1.421875 24.3125 -1.421875 
Q 15.921875 -1.421875 10.953125 3.296875 
Q 6 8.015625 6 15.921875 
Q 6 25.140625 12.171875 29.828125 
Q 18.359375 34.515625 30.609375 34.515625 
L 43.21875 34.515625 
L 43.21875 35.40625 
Q 43.21875 41.609375 39.140625 45 
Q 35.0625 48.390625 27.6875 48.390625 
Q 23 48.390625 18.546875 47.265625 
Q 14.109375 46.140625 10.015625 43.890625 
L 10.015625 52.203125 
Q 14.9375 54.109375 19.578125 55.046875 
Q 24.21875 56 28.609375 56 
Q 40.484375 56 46.34375 49.84375 
Q 52.203125 43.703125 52.203125 31.203125 
z
" id="DejaVuSans-97"/>
       <path d="M 9.421875 54.6875 
L 18.40625 54.6875 
L 18.40625 0 
L 9.421875 0 
z
M 9.421875 75.984375 
L 18.40625 75.984375 
L 18.40625 64.59375 
L 9.421875 64.59375 
z
" id="DejaVuSans-105"/>
       <path d="M 54.890625 33.015625 
L 54.890625 0 
L 45.90625 0 
L 45.90625 32.71875 
Q 45.90625 40.484375 42.875 44.328125 
Q 39.84375 48.1875 33.796875 48.1875 
Q 26.515625 48.1875 22.3125 43.546875 
Q 18.109375 38.921875 18.109375 30.90625 
L 18.109375 0 
L 9.078125 0 
L 9.078125 54.6875 
L 18.109375 54.6875 
L 18.109375 46.1875 
Q 21.34375 51.125 25.703125 53.5625 
Q 30.078125 56 35.796875 56 
Q 45.21875 56 50.046875 50.171875 
Q 54.890625 44.34375 54.890625 33.015625 
z
" id="DejaVuSans-110"/>
       <path d="M 56.203125 29.59375 
L 56.203125 25.203125 
L 14.890625 25.203125 
Q 15.484375 15.921875 20.484375 11.0625 
Q 25.484375 6.203125 34.421875 6.203125 
Q 39.59375 6.203125 44.453125 7.46875 
Q 49.3125 8.734375 54.109375 11.28125 
L 54.109375 2.78125 
Q 49.265625 0.734375 44.1875 -0.34375 
Q 39.109375 -1.421875 33.890625 -1.421875 
Q 20.796875 -1.421875 13.15625 6.1875 
Q 5.515625 13.8125 5.515625 26.8125 
Q 5.515625 40.234375 12.765625 48.109375 
Q 20.015625 56 32.328125 56 
Q 43.359375 56 49.78125 48.890625 
Q 56.203125 41.796875 56.203125 29.59375 
z
M 47.21875 32.234375 
Q 47.125 39.59375 43.09375 43.984375 
Q 39.0625 48.390625 32.421875 48.390625 
Q 24.90625 48.390625 20.390625 44.140625 
Q 15.875 39.890625 15.1875 32.171875 
z
" id="DejaVuSans-101"/>
       <path d="M 45.40625 46.390625 
L 45.40625 75.984375 
L 54.390625 75.984375 
L 54.390625 0 
L 45.40625 0 
L 45.40625 8.203125 
Q 42.578125 3.328125 38.25 0.953125 
Q 33.9375 -1.421875 27.875 -1.421875 
Q 17.96875 -1.421875 11.734375 6.484375 
Q 5.515625 14.40625 5.515625 27.296875 
Q 5.515625 40.1875 11.734375 48.09375 
Q 17.96875 56 27.875 56 
Q 33.9375 56 38.25 53.625 
Q 42.578125 51.265625 45.40625 46.390625 
z
M 14.796875 27.296875 
Q 14.796875 17.390625 18.875 11.75 
Q 22.953125 6.109375 30.078125 6.109375 
Q 37.203125 6.109375 41.296875 11.75 
Q 45.40625 17.390625 45.40625 27.296875 
Q 45.40625 37.203125 41.296875 42.84375 
Q 37.203125 48.484375 30.078125 48.484375 
Q 22.953125 48.484375 18.875 42.84375 
Q 14.796875 37.203125 14.796875 27.296875 
z
" id="DejaVuSans-100"/>
       <path id="DejaVuSans-32"/>
       <path d="M 4.203125 54.6875 
L 13.1875 54.6875 
L 24.421875 12.015625 
L 35.59375 54.6875 
L 46.1875 54.6875 
L 57.421875 12.015625 
L 68.609375 54.6875 
L 77.59375 54.6875 
L 63.28125 0 
L 52.6875 0 
L 40.921875 44.828125 
L 29.109375 0 
L 18.5 0 
z
" id="DejaVuSans-119"/>
       <path d="M 18.3125 70.21875 
L 18.3125 54.6875 
L 36.8125 54.6875 
L 36.8125 47.703125 
L 18.3125 47.703125 
L 18.3125 18.015625 
Q 18.3125 11.328125 20.140625 9.421875 
Q 21.96875 7.515625 27.59375 7.515625 
L 36.8125 7.515625 
L 36.8125 0 
L 27.59375 0 
Q 17.1875 0 13.234375 3.875 
Q 9.28125 7.765625 9.28125 18.015625 
L 9.28125 47.703125 
L 2.6875 47.703125 
L 2.6875 54.6875 
L 9.28125 54.6875 
L 9.28125 70.21875 
z
" id="DejaVuSans-116"/>
       <path d="M 54.890625 33.015625 
L 54.890625 0 
L 45.90625 0 
L 45.90625 32.71875 
Q 45.90625 40.484375 42.875 44.328125 
Q 39.84375 48.1875 33.796875 48.1875 
Q 26.515625 48.1875 22.3125 43.546875 
Q 18.109375 38.921875 18.109375 30.90625 
L 18.109375 0 
L 9.078125 0 
L 9.078125 75.984375 
L 18.109375 75.984375 
L 18.109375 46.1875 
Q 21.34375 51.125 25.703125 53.5625 
Q 30.078125 56 35.796875 56 
Q 45.21875 56 50.046875 50.171875 
Q 54.890625 44.34375 54.890625 33.015625 
z
" id="DejaVuSans-104"/>
      </defs>
      <use xlink:href="#DejaVuSans-84"/>
      <use x="46.333984" xlink:href="#DejaVuSans-114"/>
      <use x="87.447266" xlink:href="#DejaVuSans-97"/>
      <use x="148.726562" xlink:href="#DejaVuSans-105"/>
      <use x="176.509766" xlink:href="#DejaVuSans-110"/>
      <use x="239.888672" xlink:href="#DejaVuSans-101"/>
      <use x="301.412109" xlink:href="#DejaVuSans-100"/>
      <use x="364.888672" xlink:href="#DejaVuSans-32"/>
      <use x="396.675781" xlink:href="#DejaVuSans-119"/>
      <use x="478.462891" xlink:href="#DejaVuSans-105"/>
      <use x="506.246094" xlink:href="#DejaVuSans-116"/>
      <use x="545.455078" xlink:href="#DejaVuSans-104"/>
      <use x="608.833984" xlink:href="#DejaVuSans-32"/>
      <use x="640.621094" xlink:href="#DejaVuSans-84"/>
      <use x="701.705078" xlink:href="#DejaVuSans-49"/>
     </g>
    </g>
   </g>
   <g id="line2d_13">
    <path clip-path="url(#pd581c7bd5e)" d="M 59.313606 46.443327 
L 61.983463 47.33752 
L 64.653319 49.613649 
L 67.323176 47.987843 
L 69.993032 46.199456 
L 72.662889 51.808488 
L 75.332745 47.33752 
L 78.002602 47.012359 
L 80.672458 47.17494 
L 83.342315 48.719456 
L 86.012171 50.182681 
L 88.682028 48.719456 
L 91.351884 46.118165 
L 94.02174 47.825262 
L 96.691597 44.980101 
L 99.361453 44.980101 
L 102.03131 46.118165 
L 104.701166 44.492359 
L 107.371023 47.743972 
L 110.040879 46.849778 
L 112.710736 47.581391 
L 115.380592 47.500101 
L 118.050449 48.313004 
L 120.720305 50.182681 
L 123.390161 49.451069 
L 126.060018 46.605907 
L 128.729874 48.963327 
L 131.399731 46.605907 
L 134.069587 45.630423 
L 136.739444 48.963327 
L 136.766142 48.963327 
L 139.4093 46.199456 
L 142.079157 48.069133 
L 144.749013 45.874294 
L 147.41887 45.955585 
L 150.088726 44.573649 
L 152.758583 44.73623 
L 155.428439 47.743972 
L 158.098295 48.394294 
L 160.768152 45.223972 
L 163.438008 45.874294 
L 166.107865 52.052359 
L 168.777721 45.467843 
L 171.447578 45.142681 
L 174.117434 45.386552 
L 176.787291 46.280746 
L 179.457147 47.825262 
L 182.127004 47.093649 
L 184.79686 47.987843 
L 187.466717 45.874294 
L 190.136573 45.630423 
L 192.806429 45.549133 
L 195.476286 45.630423 
L 198.146142 45.305262 
L 200.815999 49.207198 
L 203.485855 45.874294 
L 206.155712 45.305262 
L 208.825568 44.411069 
L 211.495425 44.980101 
L 214.165281 45.874294 
L 216.835138 47.17494 
L 216.861836 47.17494 
L 219.504994 45.549133 
L 222.17485 46.687198 
L 224.844707 46.280746 
L 227.514563 44.81752 
L 230.18442 46.768488 
L 232.854276 46.605907 
L 235.524133 46.605907 
L 238.193989 45.305262 
L 240.863846 45.305262 
L 243.533702 46.118165 
L 246.203559 46.362036 
L 248.873415 46.036875 
L 251.543272 45.793004 
L 254.213128 44.492359 
L 256.882984 45.223972 
L 259.552841 46.036875 
L 262.222697 45.874294 
L 264.892554 45.630423 
L 267.56241 46.524617 
L 270.232267 45.061391 
L 272.902123 43.923327 
L 275.57198 44.73623 
L 278.241836 48.231714 
L 280.911693 44.167198 
L 283.581549 44.004617 
L 286.251406 47.581391 
L 288.921262 45.142681 
L 291.591118 46.199456 
L 294.260975 43.679456 
L 296.930831 44.167198 
L 296.95753 44.167198 
" style="fill:none;stroke:#0000ff;stroke-linecap:square;"/>
   </g>
   <g id="patch_3">
    <path d="M 56.64375 280.396875 
L 56.64375 28.396875 
" style="fill:none;stroke:#000000;stroke-linecap:square;stroke-linejoin:miter;stroke-width:0.8;"/>
   </g>
   <g id="patch_4">
    <path d="M 310.280114 280.396875 
L 310.280114 28.396875 
" style="fill:none;stroke:#000000;stroke-linecap:square;stroke-linejoin:miter;stroke-width:0.8;"/>
   </g>
   <g id="patch_5">
    <path d="M 56.64375 280.396875 
L 310.280114 280.396875 
" style="fill:none;stroke:#000000;stroke-linecap:square;stroke-linejoin:miter;stroke-width:0.8;"/>
   </g>
   <g id="patch_6">
    <path d="M 56.64375 28.396875 
L 310.280114 28.396875 
" style="fill:none;stroke:#000000;stroke-linecap:square;stroke-linejoin:miter;stroke-width:0.8;"/>
   </g>
   <g id="text_14">
    <!-- Tested with E1 -->
    <g transform="translate(111.018182 22.396875)scale(0.2 -0.2)">
     <defs>
      <path d="M 44.28125 53.078125 
L 44.28125 44.578125 
Q 40.484375 46.53125 36.375 47.5 
Q 32.28125 48.484375 27.875 48.484375 
Q 21.1875 48.484375 17.84375 46.4375 
Q 14.5 44.390625 14.5 40.28125 
Q 14.5 37.15625 16.890625 35.375 
Q 19.28125 33.59375 26.515625 31.984375 
L 29.59375 31.296875 
Q 39.15625 29.25 43.1875 25.515625 
Q 47.21875 21.78125 47.21875 15.09375 
Q 47.21875 7.46875 41.1875 3.015625 
Q 35.15625 -1.421875 24.609375 -1.421875 
Q 20.21875 -1.421875 15.453125 -0.5625 
Q 10.6875 0.296875 5.421875 2 
L 5.421875 11.28125 
Q 10.40625 8.6875 15.234375 7.390625 
Q 20.0625 6.109375 24.8125 6.109375 
Q 31.15625 6.109375 34.5625 8.28125 
Q 37.984375 10.453125 37.984375 14.40625 
Q 37.984375 18.0625 35.515625 20.015625 
Q 33.0625 21.96875 24.703125 23.78125 
L 21.578125 24.515625 
Q 13.234375 26.265625 9.515625 29.90625 
Q 5.8125 33.546875 5.8125 39.890625 
Q 5.8125 47.609375 11.28125 51.796875 
Q 16.75 56 26.8125 56 
Q 31.78125 56 36.171875 55.265625 
Q 40.578125 54.546875 44.28125 53.078125 
z
" id="DejaVuSans-115"/>
      <path d="M 9.8125 72.90625 
L 55.90625 72.90625 
L 55.90625 64.59375 
L 19.671875 64.59375 
L 19.671875 43.015625 
L 54.390625 43.015625 
L 54.390625 34.71875 
L 19.671875 34.71875 
L 19.671875 8.296875 
L 56.78125 8.296875 
L 56.78125 0 
L 9.8125 0 
z
" id="DejaVuSans-69"/>
     </defs>
     <use xlink:href="#DejaVuSans-84"/>
     <use x="44.083984" xlink:href="#DejaVuSans-101"/>
     <use x="105.607422" xlink:href="#DejaVuSans-115"/>
     <use x="157.707031" xlink:href="#DejaVuSans-116"/>
     <use x="196.916016" xlink:href="#DejaVuSans-101"/>
     <use x="258.439453" xlink:href="#DejaVuSans-100"/>
     <use x="321.916016" xlink:href="#DejaVuSans-32"/>
     <use x="353.703125" xlink:href="#DejaVuSans-119"/>
     <use x="435.490234" xlink:href="#DejaVuSans-105"/>
     <use x="463.273438" xlink:href="#DejaVuSans-116"/>
     <use x="502.482422" xlink:href="#DejaVuSans-104"/>
     <use x="565.861328" xlink:href="#DejaVuSans-32"/>
     <use x="597.648438" xlink:href="#DejaVuSans-69"/>
     <use x="660.832031" xlink:href="#DejaVuSans-49"/>
    </g>
   </g>
   <g id="legend_1">
    <g id="patch_7">
     <path d="M 114.156676 275.396875 
L 303.280114 275.396875 
Q 305.280114 275.396875 305.280114 273.396875 
L 305.280114 245.040625 
Q 305.280114 243.040625 303.280114 243.040625 
L 114.156676 243.040625 
Q 112.156676 243.040625 112.156676 245.040625 
L 112.156676 273.396875 
Q 112.156676 275.396875 114.156676 275.396875 
z
" style="fill:#ffffff;opacity:0.8;stroke:#cccccc;stroke-linejoin:miter;"/>
    </g>
    <g id="line2d_14">
     <path d="M 116.156676 251.139062 
L 136.156676 251.139062 
" style="fill:none;stroke:#0000ff;stroke-linecap:square;"/>
    </g>
    <g id="line2d_15"/>
    <g id="text_15">
     <!-- Median accuracy (%) / iteration -->
     <g transform="translate(144.156676 254.639062)scale(0.1 -0.1)">
      <defs>
       <path d="M 9.8125 72.90625 
L 24.515625 72.90625 
L 43.109375 23.296875 
L 61.8125 72.90625 
L 76.515625 72.90625 
L 76.515625 0 
L 66.890625 0 
L 66.890625 64.015625 
L 48.09375 14.015625 
L 38.1875 14.015625 
L 19.390625 64.015625 
L 19.390625 0 
L 9.8125 0 
z
" id="DejaVuSans-77"/>
       <path d="M 48.78125 52.59375 
L 48.78125 44.1875 
Q 44.96875 46.296875 41.140625 47.34375 
Q 37.3125 48.390625 33.40625 48.390625 
Q 24.65625 48.390625 19.8125 42.84375 
Q 14.984375 37.3125 14.984375 27.296875 
Q 14.984375 17.28125 19.8125 11.734375 
Q 24.65625 6.203125 33.40625 6.203125 
Q 37.3125 6.203125 41.140625 7.25 
Q 44.96875 8.296875 48.78125 10.40625 
L 48.78125 2.09375 
Q 45.015625 0.34375 40.984375 -0.53125 
Q 36.96875 -1.421875 32.421875 -1.421875 
Q 20.0625 -1.421875 12.78125 6.34375 
Q 5.515625 14.109375 5.515625 27.296875 
Q 5.515625 40.671875 12.859375 48.328125 
Q 20.21875 56 33.015625 56 
Q 37.15625 56 41.109375 55.140625 
Q 45.0625 54.296875 48.78125 52.59375 
z
" id="DejaVuSans-99"/>
       <path d="M 8.5 21.578125 
L 8.5 54.6875 
L 17.484375 54.6875 
L 17.484375 21.921875 
Q 17.484375 14.15625 20.5 10.265625 
Q 23.53125 6.390625 29.59375 6.390625 
Q 36.859375 6.390625 41.078125 11.03125 
Q 45.3125 15.671875 45.3125 23.6875 
L 45.3125 54.6875 
L 54.296875 54.6875 
L 54.296875 0 
L 45.3125 0 
L 45.3125 8.40625 
Q 42.046875 3.421875 37.71875 1 
Q 33.40625 -1.421875 27.6875 -1.421875 
Q 18.265625 -1.421875 13.375 4.4375 
Q 8.5 10.296875 8.5 21.578125 
z
M 31.109375 56 
z
" id="DejaVuSans-117"/>
       <path d="M 32.171875 -5.078125 
Q 28.375 -14.84375 24.75 -17.8125 
Q 21.140625 -20.796875 15.09375 -20.796875 
L 7.90625 -20.796875 
L 7.90625 -13.28125 
L 13.1875 -13.28125 
Q 16.890625 -13.28125 18.9375 -11.515625 
Q 21 -9.765625 23.484375 -3.21875 
L 25.09375 0.875 
L 2.984375 54.6875 
L 12.5 54.6875 
L 29.59375 11.921875 
L 46.6875 54.6875 
L 56.203125 54.6875 
z
" id="DejaVuSans-121"/>
       <path d="M 31 75.875 
Q 24.46875 64.65625 21.28125 53.65625 
Q 18.109375 42.671875 18.109375 31.390625 
Q 18.109375 20.125 21.3125 9.0625 
Q 24.515625 -2 31 -13.1875 
L 23.1875 -13.1875 
Q 15.875 -1.703125 12.234375 9.375 
Q 8.59375 20.453125 8.59375 31.390625 
Q 8.59375 42.28125 12.203125 53.3125 
Q 15.828125 64.359375 23.1875 75.875 
z
" id="DejaVuSans-40"/>
       <path d="M 72.703125 32.078125 
Q 68.453125 32.078125 66.03125 28.46875 
Q 63.625 24.859375 63.625 18.40625 
Q 63.625 12.0625 66.03125 8.421875 
Q 68.453125 4.78125 72.703125 4.78125 
Q 76.859375 4.78125 79.265625 8.421875 
Q 81.6875 12.0625 81.6875 18.40625 
Q 81.6875 24.8125 79.265625 28.4375 
Q 76.859375 32.078125 72.703125 32.078125 
z
M 72.703125 38.28125 
Q 80.421875 38.28125 84.953125 32.90625 
Q 89.5 27.546875 89.5 18.40625 
Q 89.5 9.28125 84.9375 3.921875 
Q 80.375 -1.421875 72.703125 -1.421875 
Q 64.890625 -1.421875 60.34375 3.921875 
Q 55.8125 9.28125 55.8125 18.40625 
Q 55.8125 27.59375 60.375 32.9375 
Q 64.9375 38.28125 72.703125 38.28125 
z
M 22.3125 68.015625 
Q 18.109375 68.015625 15.6875 64.375 
Q 13.28125 60.75 13.28125 54.390625 
Q 13.28125 47.953125 15.671875 44.328125 
Q 18.0625 40.71875 22.3125 40.71875 
Q 26.5625 40.71875 28.96875 44.328125 
Q 31.390625 47.953125 31.390625 54.390625 
Q 31.390625 60.6875 28.953125 64.34375 
Q 26.515625 68.015625 22.3125 68.015625 
z
M 66.40625 74.21875 
L 74.21875 74.21875 
L 28.609375 -1.421875 
L 20.796875 -1.421875 
z
M 22.3125 74.21875 
Q 30.03125 74.21875 34.609375 68.875 
Q 39.203125 63.53125 39.203125 54.390625 
Q 39.203125 45.171875 34.640625 39.84375 
Q 30.078125 34.515625 22.3125 34.515625 
Q 14.546875 34.515625 10.03125 39.859375 
Q 5.515625 45.21875 5.515625 54.390625 
Q 5.515625 63.484375 10.046875 68.84375 
Q 14.59375 74.21875 22.3125 74.21875 
z
" id="DejaVuSans-37"/>
       <path d="M 8.015625 75.875 
L 15.828125 75.875 
Q 23.140625 64.359375 26.78125 53.3125 
Q 30.421875 42.28125 30.421875 31.390625 
Q 30.421875 20.453125 26.78125 9.375 
Q 23.140625 -1.703125 15.828125 -13.1875 
L 8.015625 -13.1875 
Q 14.5 -2 17.703125 9.0625 
Q 20.90625 20.125 20.90625 31.390625 
Q 20.90625 42.671875 17.703125 53.65625 
Q 14.5 64.65625 8.015625 75.875 
z
" id="DejaVuSans-41"/>
       <path d="M 25.390625 72.90625 
L 33.6875 72.90625 
L 8.296875 -9.28125 
L 0 -9.28125 
z
" id="DejaVuSans-47"/>
       <path d="M 30.609375 48.390625 
Q 23.390625 48.390625 19.1875 42.75 
Q 14.984375 37.109375 14.984375 27.296875 
Q 14.984375 17.484375 19.15625 11.84375 
Q 23.34375 6.203125 30.609375 6.203125 
Q 37.796875 6.203125 41.984375 11.859375 
Q 46.1875 17.53125 46.1875 27.296875 
Q 46.1875 37.015625 41.984375 42.703125 
Q 37.796875 48.390625 30.609375 48.390625 
z
M 30.609375 56 
Q 42.328125 56 49.015625 48.375 
Q 55.71875 40.765625 55.71875 27.296875 
Q 55.71875 13.875 49.015625 6.21875 
Q 42.328125 -1.421875 30.609375 -1.421875 
Q 18.84375 -1.421875 12.171875 6.21875 
Q 5.515625 13.875 5.515625 27.296875 
Q 5.515625 40.765625 12.171875 48.375 
Q 18.84375 56 30.609375 56 
z
" id="DejaVuSans-111"/>
      </defs>
      <use xlink:href="#DejaVuSans-77"/>
      <use x="86.279297" xlink:href="#DejaVuSans-101"/>
      <use x="147.802734" xlink:href="#DejaVuSans-100"/>
      <use x="211.279297" xlink:href="#DejaVuSans-105"/>
      <use x="239.0625" xlink:href="#DejaVuSans-97"/>
      <use x="300.341797" xlink:href="#DejaVuSans-110"/>
      <use x="363.720703" xlink:href="#DejaVuSans-32"/>
      <use x="395.507812" xlink:href="#DejaVuSans-97"/>
      <use x="456.787109" xlink:href="#DejaVuSans-99"/>
      <use x="511.767578" xlink:href="#DejaVuSans-99"/>
      <use x="566.748047" xlink:href="#DejaVuSans-117"/>
      <use x="630.126953" xlink:href="#DejaVuSans-114"/>
      <use x="671.240234" xlink:href="#DejaVuSans-97"/>
      <use x="732.519531" xlink:href="#DejaVuSans-99"/>
      <use x="787.5" xlink:href="#DejaVuSans-121"/>
      <use x="846.679688" xlink:href="#DejaVuSans-32"/>
      <use x="878.466797" xlink:href="#DejaVuSans-40"/>
      <use x="917.480469" xlink:href="#DejaVuSans-37"/>
      <use x="1012.5" xlink:href="#DejaVuSans-41"/>
      <use x="1051.513672" xlink:href="#DejaVuSans-32"/>
      <use x="1083.300781" xlink:href="#DejaVuSans-47"/>
      <use x="1116.992188" xlink:href="#DejaVuSans-32"/>
      <use x="1148.779297" xlink:href="#DejaVuSans-105"/>
      <use x="1176.5625" xlink:href="#DejaVuSans-116"/>
      <use x="1215.771484" xlink:href="#DejaVuSans-101"/>
      <use x="1277.294922" xlink:href="#DejaVuSans-114"/>
      <use x="1318.408203" xlink:href="#DejaVuSans-97"/>
      <use x="1379.6875" xlink:href="#DejaVuSans-116"/>
      <use x="1418.896484" xlink:href="#DejaVuSans-105"/>
      <use x="1446.679688" xlink:href="#DejaVuSans-111"/>
      <use x="1507.861328" xlink:href="#DejaVuSans-110"/>
     </g>
    </g>
    <g id="patch_8">
     <path d="M 116.156676 269.317187 
L 136.156676 269.317187 
L 136.156676 262.317187 
L 116.156676 262.317187 
z
" style="fill:#0000ff;opacity:0.35;"/>
    </g>
    <g id="text_16">
     <!-- Range of accuracy values -->
     <g transform="translate(144.156676 269.317187)scale(0.1 -0.1)">
      <defs>
       <path d="M 44.390625 34.1875 
Q 47.5625 33.109375 50.5625 29.59375 
Q 53.5625 26.078125 56.59375 19.921875 
L 66.609375 0 
L 56 0 
L 46.6875 18.703125 
Q 43.0625 26.03125 39.671875 28.421875 
Q 36.28125 30.8125 30.421875 30.8125 
L 19.671875 30.8125 
L 19.671875 0 
L 9.8125 0 
L 9.8125 72.90625 
L 32.078125 72.90625 
Q 44.578125 72.90625 50.734375 67.671875 
Q 56.890625 62.453125 56.890625 51.90625 
Q 56.890625 45.015625 53.6875 40.46875 
Q 50.484375 35.9375 44.390625 34.1875 
z
M 19.671875 64.796875 
L 19.671875 38.921875 
L 32.078125 38.921875 
Q 39.203125 38.921875 42.84375 42.21875 
Q 46.484375 45.515625 46.484375 51.90625 
Q 46.484375 58.296875 42.84375 61.546875 
Q 39.203125 64.796875 32.078125 64.796875 
z
" id="DejaVuSans-82"/>
       <path d="M 45.40625 27.984375 
Q 45.40625 37.75 41.375 43.109375 
Q 37.359375 48.484375 30.078125 48.484375 
Q 22.859375 48.484375 18.828125 43.109375 
Q 14.796875 37.75 14.796875 27.984375 
Q 14.796875 18.265625 18.828125 12.890625 
Q 22.859375 7.515625 30.078125 7.515625 
Q 37.359375 7.515625 41.375 12.890625 
Q 45.40625 18.265625 45.40625 27.984375 
z
M 54.390625 6.78125 
Q 54.390625 -7.171875 48.1875 -13.984375 
Q 42 -20.796875 29.203125 -20.796875 
Q 24.46875 -20.796875 20.265625 -20.09375 
Q 16.0625 -19.390625 12.109375 -17.921875 
L 12.109375 -9.1875 
Q 16.0625 -11.328125 19.921875 -12.34375 
Q 23.78125 -13.375 27.78125 -13.375 
Q 36.625 -13.375 41.015625 -8.765625 
Q 45.40625 -4.15625 45.40625 5.171875 
L 45.40625 9.625 
Q 42.625 4.78125 38.28125 2.390625 
Q 33.9375 0 27.875 0 
Q 17.828125 0 11.671875 7.65625 
Q 5.515625 15.328125 5.515625 27.984375 
Q 5.515625 40.671875 11.671875 48.328125 
Q 17.828125 56 27.875 56 
Q 33.9375 56 38.28125 53.609375 
Q 42.625 51.21875 45.40625 46.390625 
L 45.40625 54.6875 
L 54.390625 54.6875 
z
" id="DejaVuSans-103"/>
       <path d="M 37.109375 75.984375 
L 37.109375 68.5 
L 28.515625 68.5 
Q 23.6875 68.5 21.796875 66.546875 
Q 19.921875 64.59375 19.921875 59.515625 
L 19.921875 54.6875 
L 34.71875 54.6875 
L 34.71875 47.703125 
L 19.921875 47.703125 
L 19.921875 0 
L 10.890625 0 
L 10.890625 47.703125 
L 2.296875 47.703125 
L 2.296875 54.6875 
L 10.890625 54.6875 
L 10.890625 58.5 
Q 10.890625 67.625 15.140625 71.796875 
Q 19.390625 75.984375 28.609375 75.984375 
z
" id="DejaVuSans-102"/>
       <path d="M 2.984375 54.6875 
L 12.5 54.6875 
L 29.59375 8.796875 
L 46.6875 54.6875 
L 56.203125 54.6875 
L 35.6875 0 
L 23.484375 0 
z
" id="DejaVuSans-118"/>
       <path d="M 9.421875 75.984375 
L 18.40625 75.984375 
L 18.40625 0 
L 9.421875 0 
z
" id="DejaVuSans-108"/>
      </defs>
      <use xlink:href="#DejaVuSans-82"/>
      <use x="67.232422" xlink:href="#DejaVuSans-97"/>
      <use x="128.511719" xlink:href="#DejaVuSans-110"/>
      <use x="191.890625" xlink:href="#DejaVuSans-103"/>
      <use x="255.367188" xlink:href="#DejaVuSans-101"/>
      <use x="316.890625" xlink:href="#DejaVuSans-32"/>
      <use x="348.677734" xlink:href="#DejaVuSans-111"/>
      <use x="409.859375" xlink:href="#DejaVuSans-102"/>
      <use x="445.064453" xlink:href="#DejaVuSans-32"/>
      <use x="476.851562" xlink:href="#DejaVuSans-97"/>
      <use x="538.130859" xlink:href="#DejaVuSans-99"/>
      <use x="593.111328" xlink:href="#DejaVuSans-99"/>
      <use x="648.091797" xlink:href="#DejaVuSans-117"/>
      <use x="711.470703" xlink:href="#DejaVuSans-114"/>
      <use x="752.583984" xlink:href="#DejaVuSans-97"/>
      <use x="813.863281" xlink:href="#DejaVuSans-99"/>
      <use x="868.84375" xlink:href="#DejaVuSans-121"/>
      <use x="928.023438" xlink:href="#DejaVuSans-32"/>
      <use x="959.810547" xlink:href="#DejaVuSans-118"/>
      <use x="1018.990234" xlink:href="#DejaVuSans-97"/>
      <use x="1080.269531" xlink:href="#DejaVuSans-108"/>
      <use x="1108.052734" xlink:href="#DejaVuSans-117"/>
      <use x="1171.431641" xlink:href="#DejaVuSans-101"/>
      <use x="1232.955078" xlink:href="#DejaVuSans-115"/>
     </g>
    </g>
   </g>
  </g>
  <g id="axes_2">
   <g id="patch_9">
    <path d="M 361.007386 280.396875 
L 614.64375 280.396875 
L 614.64375 28.396875 
L 361.007386 28.396875 
z
" style="fill:#ffffff;"/>
   </g>
   <g id="PolyCollection_2">
    <path clip-path="url(#pce47dbcc48)" d="M 363.677243 41.728488 
L 363.677243 233.73623 
L 366.347099 200.244617 
L 369.016956 162.444617 
L 371.686812 116.109133 
L 374.356669 101.558165 
L 377.026525 83.430423 
L 379.696382 77.333649 
L 382.366238 73.675585 
L 385.036094 91.803327 
L 387.705951 72.45623 
L 390.375807 62.863972 
L 393.045664 66.278165 
L 395.71552 76.195585 
L 398.385377 63.433004 
L 401.055233 67.660101 
L 403.72509 61.156875 
L 406.394946 56.523327 
L 409.064803 79.365907 
L 411.734659 60.262681 
L 414.404516 56.279456 
L 417.074372 53.922036 
L 419.744228 56.929778 
L 422.414085 55.141391 
L 425.083941 56.116875 
L 427.753798 54.491069 
L 430.423654 54.328488 
L 433.093511 56.929778 
L 435.763367 62.213649 
L 438.433224 53.596875 
L 441.10308 55.710423 
L 441.129779 55.710423 
L 443.772937 53.678165 
L 446.442793 72.862681 
L 449.11265 55.466552 
L 451.782506 57.092359 
L 454.452362 54.328488 
L 457.122219 52.702681 
L 459.792075 52.37752 
L 462.461932 55.060101 
L 465.131788 57.580101 
L 467.801645 55.629133 
L 470.471501 61.156875 
L 473.141358 61.807198 
L 475.811214 61.725907 
L 478.481071 69.204617 
L 481.150927 55.873004 
L 483.820783 54.165907 
L 486.49064 55.222681 
L 489.160496 52.133649 
L 491.830353 55.466552 
L 494.500209 57.41752 
L 497.170066 50.670423 
L 499.839922 59.77494 
L 502.509779 55.060101 
L 505.179635 64.245907 
L 507.849492 52.865262 
L 510.519348 50.426552 
L 513.189205 50.589133 
L 515.859061 48.069133 
L 518.528917 50.670423 
L 521.198774 51.971069 
L 521.225472 51.971069 
L 523.86863 50.995585 
L 526.538487 50.263972 
L 529.208343 53.027843 
L 531.8782 49.85752 
L 534.548056 51.971069 
L 537.217913 56.929778 
L 539.887769 50.914294 
L 542.557626 46.524617 
L 545.227482 46.605907 
L 547.897339 58.880746 
L 550.567195 47.17494 
L 553.237051 48.800746 
L 555.906908 52.052359 
L 558.576764 47.906552 
L 561.246621 49.207198 
L 563.916477 55.954294 
L 566.586334 47.987843 
L 569.25619 51.564617 
L 571.926047 51.645907 
L 574.595903 56.360746 
L 577.26576 59.93752 
L 579.935616 50.589133 
L 582.605472 48.963327 
L 585.275329 47.662681 
L 587.945185 50.020101 
L 590.615042 50.751714 
L 593.284898 47.25623 
L 595.954755 53.271714 
L 598.624611 46.362036 
L 601.294468 49.451069 
L 601.321166 49.451069 
L 601.321166 43.273004 
L 601.321166 43.273004 
L 601.294468 43.273004 
L 598.624611 42.947843 
L 595.954755 42.541391 
L 593.284898 42.622681 
L 590.615042 43.760746 
L 587.945185 42.13494 
L 585.275329 41.484617 
L 582.605472 41.972359 
L 579.935616 42.866552 
L 577.26576 41.322036 
L 574.595903 42.37881 
L 571.926047 43.354294 
L 569.25619 42.21623 
L 566.586334 42.622681 
L 563.916477 43.760746 
L 561.246621 43.923327 
L 558.576764 41.728488 
L 555.906908 42.947843 
L 553.237051 42.541391 
L 550.567195 42.460101 
L 547.897339 42.785262 
L 545.227482 43.923327 
L 542.557626 44.004617 
L 539.887769 43.029133 
L 537.217913 43.110423 
L 534.548056 42.866552 
L 531.8782 43.110423 
L 529.208343 42.053649 
L 526.538487 42.053649 
L 523.86863 42.13494 
L 521.225472 42.053649 
L 521.198774 42.053649 
L 518.528917 42.703972 
L 515.859061 42.13494 
L 513.189205 43.842036 
L 510.519348 42.29752 
L 507.849492 43.354294 
L 505.179635 42.947843 
L 502.509779 42.866552 
L 499.839922 43.191714 
L 497.170066 44.65494 
L 494.500209 43.516875 
L 491.830353 42.703972 
L 489.160496 42.866552 
L 486.49064 43.435585 
L 483.820783 43.516875 
L 481.150927 42.21623 
L 478.481071 42.866552 
L 475.811214 42.947843 
L 473.141358 41.484617 
L 470.471501 42.29752 
L 467.801645 42.785262 
L 465.131788 44.573649 
L 462.461932 41.728488 
L 459.792075 41.484617 
L 457.122219 42.37881 
L 454.452362 43.923327 
L 451.782506 43.110423 
L 449.11265 41.891069 
L 446.442793 44.81752 
L 443.772937 41.809778 
L 441.129779 42.785262 
L 441.10308 42.785262 
L 438.433224 43.760746 
L 435.763367 42.947843 
L 433.093511 45.305262 
L 430.423654 43.679456 
L 427.753798 44.004617 
L 425.083941 44.329778 
L 422.414085 44.085907 
L 419.744228 46.199456 
L 417.074372 43.516875 
L 414.404516 44.492359 
L 411.734659 43.273004 
L 409.064803 41.809778 
L 406.394946 42.21623 
L 403.72509 42.053649 
L 401.055233 42.866552 
L 398.385377 42.29752 
L 395.71552 42.866552 
L 393.045664 42.785262 
L 390.375807 44.73623 
L 387.705951 46.362036 
L 385.036094 46.036875 
L 382.366238 44.329778 
L 379.696382 44.89881 
L 377.026525 44.085907 
L 374.356669 45.223972 
L 371.686812 45.467843 
L 369.016956 47.093649 
L 366.347099 45.549133 
L 363.677243 41.728488 
z
" style="fill:#008000;fill-opacity:0.35;"/>
   </g>
   <g id="matplotlib.axis_3">
    <g id="xtick_6">
     <g id="line2d_16">
      <g>
       <use style="stroke:#000000;stroke-width:0.8;" x="361.007386" xlink:href="#m392b59a4c1" y="280.396875"/>
      </g>
     </g>
     <g id="text_17">
      <!-- 0 -->
      <g transform="translate(357.826136 294.995312)scale(0.1 -0.1)">
       <use xlink:href="#DejaVuSans-48"/>
      </g>
     </g>
    </g>
    <g id="xtick_7">
     <g id="line2d_17">
      <g>
       <use style="stroke:#000000;stroke-width:0.8;" x="414.404516" xlink:href="#m392b59a4c1" y="280.396875"/>
      </g>
     </g>
     <g id="text_18">
      <!-- 2000 -->
      <g transform="translate(401.679516 294.995312)scale(0.1 -0.1)">
       <use xlink:href="#DejaVuSans-50"/>
       <use x="63.623047" xlink:href="#DejaVuSans-48"/>
       <use x="127.246094" xlink:href="#DejaVuSans-48"/>
       <use x="190.869141" xlink:href="#DejaVuSans-48"/>
      </g>
     </g>
    </g>
    <g id="xtick_8">
     <g id="line2d_18">
      <g>
       <use style="stroke:#000000;stroke-width:0.8;" x="467.801645" xlink:href="#m392b59a4c1" y="280.396875"/>
      </g>
     </g>
     <g id="text_19">
      <!-- 4000 -->
      <g transform="translate(455.076645 294.995312)scale(0.1 -0.1)">
       <use xlink:href="#DejaVuSans-52"/>
       <use x="63.623047" xlink:href="#DejaVuSans-48"/>
       <use x="127.246094" xlink:href="#DejaVuSans-48"/>
       <use x="190.869141" xlink:href="#DejaVuSans-48"/>
      </g>
     </g>
    </g>
    <g id="xtick_9">
     <g id="line2d_19">
      <g>
       <use style="stroke:#000000;stroke-width:0.8;" x="521.198774" xlink:href="#m392b59a4c1" y="280.396875"/>
      </g>
     </g>
     <g id="text_20">
      <!-- 6000 -->
      <g transform="translate(508.473774 294.995312)scale(0.1 -0.1)">
       <use xlink:href="#DejaVuSans-54"/>
       <use x="63.623047" xlink:href="#DejaVuSans-48"/>
       <use x="127.246094" xlink:href="#DejaVuSans-48"/>
       <use x="190.869141" xlink:href="#DejaVuSans-48"/>
      </g>
     </g>
    </g>
    <g id="xtick_10">
     <g id="line2d_20">
      <g>
       <use style="stroke:#000000;stroke-width:0.8;" x="574.595903" xlink:href="#m392b59a4c1" y="280.396875"/>
      </g>
     </g>
     <g id="text_21">
      <!-- 8000 -->
      <g transform="translate(561.870903 294.995312)scale(0.1 -0.1)">
       <use xlink:href="#DejaVuSans-56"/>
       <use x="63.623047" xlink:href="#DejaVuSans-48"/>
       <use x="127.246094" xlink:href="#DejaVuSans-48"/>
       <use x="190.869141" xlink:href="#DejaVuSans-48"/>
      </g>
     </g>
    </g>
   </g>
   <g id="matplotlib.axis_4">
    <g id="ytick_8">
     <g id="line2d_21">
      <g>
       <use style="stroke:#000000;stroke-width:0.8;" x="361.007386" xlink:href="#ma948718c39" y="280.396875"/>
      </g>
     </g>
     <g id="text_22">
      <!-- 40 -->
      <g transform="translate(341.282386 284.196094)scale(0.1 -0.1)">
       <use xlink:href="#DejaVuSans-52"/>
       <use x="63.623047" xlink:href="#DejaVuSans-48"/>
      </g>
     </g>
    </g>
    <g id="ytick_9">
     <g id="line2d_22">
      <g>
       <use style="stroke:#000000;stroke-width:0.8;" x="361.007386" xlink:href="#ma948718c39" y="239.751714"/>
      </g>
     </g>
     <g id="text_23">
      <!-- 50 -->
      <g transform="translate(341.282386 243.550932)scale(0.1 -0.1)">
       <use xlink:href="#DejaVuSans-53"/>
       <use x="63.623047" xlink:href="#DejaVuSans-48"/>
      </g>
     </g>
    </g>
    <g id="ytick_10">
     <g id="line2d_23">
      <g>
       <use style="stroke:#000000;stroke-width:0.8;" x="361.007386" xlink:href="#ma948718c39" y="199.106552"/>
      </g>
     </g>
     <g id="text_24">
      <!-- 60 -->
      <g transform="translate(341.282386 202.905771)scale(0.1 -0.1)">
       <use xlink:href="#DejaVuSans-54"/>
       <use x="63.623047" xlink:href="#DejaVuSans-48"/>
      </g>
     </g>
    </g>
    <g id="ytick_11">
     <g id="line2d_24">
      <g>
       <use style="stroke:#000000;stroke-width:0.8;" x="361.007386" xlink:href="#ma948718c39" y="158.461391"/>
      </g>
     </g>
     <g id="text_25">
      <!-- 70 -->
      <g transform="translate(341.282386 162.26061)scale(0.1 -0.1)">
       <use xlink:href="#DejaVuSans-55"/>
       <use x="63.623047" xlink:href="#DejaVuSans-48"/>
      </g>
     </g>
    </g>
    <g id="ytick_12">
     <g id="line2d_25">
      <g>
       <use style="stroke:#000000;stroke-width:0.8;" x="361.007386" xlink:href="#ma948718c39" y="117.81623"/>
      </g>
     </g>
     <g id="text_26">
      <!-- 80 -->
      <g transform="translate(341.282386 121.615449)scale(0.1 -0.1)">
       <use xlink:href="#DejaVuSans-56"/>
       <use x="63.623047" xlink:href="#DejaVuSans-48"/>
      </g>
     </g>
    </g>
    <g id="ytick_13">
     <g id="line2d_26">
      <g>
       <use style="stroke:#000000;stroke-width:0.8;" x="361.007386" xlink:href="#ma948718c39" y="77.171069"/>
      </g>
     </g>
     <g id="text_27">
      <!-- 90 -->
      <g transform="translate(341.282386 80.970287)scale(0.1 -0.1)">
       <use xlink:href="#DejaVuSans-57"/>
       <use x="63.623047" xlink:href="#DejaVuSans-48"/>
      </g>
     </g>
    </g>
    <g id="ytick_14">
     <g id="line2d_27">
      <g>
       <use style="stroke:#000000;stroke-width:0.8;" x="361.007386" xlink:href="#ma948718c39" y="36.525907"/>
      </g>
     </g>
     <g id="text_28">
      <!-- 100 -->
      <g transform="translate(334.919886 40.325126)scale(0.1 -0.1)">
       <use xlink:href="#DejaVuSans-49"/>
       <use x="63.623047" xlink:href="#DejaVuSans-48"/>
       <use x="127.246094" xlink:href="#DejaVuSans-48"/>
      </g>
     </g>
    </g>
   </g>
   <g id="line2d_28">
    <path clip-path="url(#pce47dbcc48)" d="M 363.677243 47.41881 
L 366.347099 49.207198 
L 369.016956 47.662681 
L 371.686812 47.093649 
L 374.356669 46.280746 
L 377.026525 50.263972 
L 379.696382 47.581391 
L 382.366238 46.362036 
L 385.036094 46.280746 
L 387.705951 47.17494 
L 390.375807 48.800746 
L 393.045664 47.33752 
L 395.71552 45.142681 
L 398.385377 47.093649 
L 401.055233 44.81752 
L 403.72509 44.329778 
L 406.394946 45.386552 
L 409.064803 45.305262 
L 411.734659 47.41881 
L 414.404516 47.41881 
L 417.074372 48.231714 
L 419.744228 49.044617 
L 422.414085 48.313004 
L 425.083941 48.069133 
L 427.753798 47.906552 
L 430.423654 45.549133 
L 433.093511 46.849778 
L 435.763367 46.605907 
L 438.433224 47.093649 
L 441.10308 48.638165 
L 441.129779 48.638165 
L 443.772937 47.825262 
L 446.442793 48.069133 
L 449.11265 46.605907 
L 451.782506 45.549133 
L 454.452362 45.305262 
L 457.122219 44.573649 
L 459.792075 47.33752 
L 462.461932 47.662681 
L 465.131788 47.17494 
L 467.801645 45.630423 
L 470.471501 51.076875 
L 473.141358 44.73623 
L 475.811214 45.305262 
L 478.481071 45.142681 
L 481.150927 45.142681 
L 483.820783 46.931069 
L 486.49064 45.630423 
L 489.160496 48.719456 
L 491.830353 45.142681 
L 494.500209 45.630423 
L 497.170066 45.386552 
L 499.839922 45.793004 
L 502.509779 44.980101 
L 505.179635 47.33752 
L 507.849492 45.874294 
L 510.519348 44.89881 
L 513.189205 44.573649 
L 515.859061 44.492359 
L 518.528917 45.305262 
L 521.198774 48.963327 
L 521.225472 48.963327 
L 523.86863 45.386552 
L 526.538487 47.25623 
L 529.208343 46.036875 
L 531.8782 44.65494 
L 534.548056 46.280746 
L 537.217913 46.687198 
L 539.887769 45.142681 
L 542.557626 45.467843 
L 545.227482 44.980101 
L 547.897339 45.305262 
L 550.567195 46.605907 
L 553.237051 45.955585 
L 555.906908 45.793004 
L 558.576764 45.305262 
L 561.246621 44.81752 
L 563.916477 46.036875 
L 566.586334 46.524617 
L 569.25619 47.33752 
L 571.926047 46.199456 
L 574.595903 45.305262 
L 577.26576 44.73623 
L 579.935616 45.955585 
L 582.605472 47.500101 
L 585.275329 45.061391 
L 587.945185 44.085907 
L 590.615042 46.687198 
L 593.284898 44.980101 
L 595.954755 45.630423 
L 598.624611 44.004617 
L 601.294468 46.118165 
L 601.321166 46.118165 
" style="fill:none;stroke:#008000;stroke-linecap:square;"/>
   </g>
   <g id="patch_10">
    <path d="M 361.007386 280.396875 
L 361.007386 28.396875 
" style="fill:none;stroke:#000000;stroke-linecap:square;stroke-linejoin:miter;stroke-width:0.8;"/>
   </g>
   <g id="patch_11">
    <path d="M 614.64375 280.396875 
L 614.64375 28.396875 
" style="fill:none;stroke:#000000;stroke-linecap:square;stroke-linejoin:miter;stroke-width:0.8;"/>
   </g>
   <g id="patch_12">
    <path d="M 361.007386 280.396875 
L 614.64375 280.396875 
" style="fill:none;stroke:#000000;stroke-linecap:square;stroke-linejoin:miter;stroke-width:0.8;"/>
   </g>
   <g id="patch_13">
    <path d="M 361.007386 28.396875 
L 614.64375 28.396875 
" style="fill:none;stroke:#000000;stroke-linecap:square;stroke-linejoin:miter;stroke-width:0.8;"/>
   </g>
   <g id="text_29">
    <!-- Tested with E2 -->
    <g transform="translate(415.381818 22.396875)scale(0.2 -0.2)">
     <use xlink:href="#DejaVuSans-84"/>
     <use x="44.083984" xlink:href="#DejaVuSans-101"/>
     <use x="105.607422" xlink:href="#DejaVuSans-115"/>
     <use x="157.707031" xlink:href="#DejaVuSans-116"/>
     <use x="196.916016" xlink:href="#DejaVuSans-101"/>
     <use x="258.439453" xlink:href="#DejaVuSans-100"/>
     <use x="321.916016" xlink:href="#DejaVuSans-32"/>
     <use x="353.703125" xlink:href="#DejaVuSans-119"/>
     <use x="435.490234" xlink:href="#DejaVuSans-105"/>
     <use x="463.273438" xlink:href="#DejaVuSans-116"/>
     <use x="502.482422" xlink:href="#DejaVuSans-104"/>
     <use x="565.861328" xlink:href="#DejaVuSans-32"/>
     <use x="597.648438" xlink:href="#DejaVuSans-69"/>
     <use x="660.832031" xlink:href="#DejaVuSans-50"/>
    </g>
   </g>
   <g id="legend_2">
    <g id="patch_14">
     <path d="M 418.520312 275.396875 
L 607.64375 275.396875 
Q 609.64375 275.396875 609.64375 273.396875 
L 609.64375 245.040625 
Q 609.64375 243.040625 607.64375 243.040625 
L 418.520312 243.040625 
Q 416.520312 243.040625 416.520312 245.040625 
L 416.520312 273.396875 
Q 416.520312 275.396875 418.520312 275.396875 
z
" style="fill:#ffffff;opacity:0.8;stroke:#cccccc;stroke-linejoin:miter;"/>
    </g>
    <g id="line2d_29">
     <path d="M 420.520312 251.139062 
L 440.520312 251.139062 
" style="fill:none;stroke:#008000;stroke-linecap:square;"/>
    </g>
    <g id="line2d_30"/>
    <g id="text_30">
     <!-- Median accuracy (%) / iteration -->
     <g transform="translate(448.520312 254.639062)scale(0.1 -0.1)">
      <use xlink:href="#DejaVuSans-77"/>
      <use x="86.279297" xlink:href="#DejaVuSans-101"/>
      <use x="147.802734" xlink:href="#DejaVuSans-100"/>
      <use x="211.279297" xlink:href="#DejaVuSans-105"/>
      <use x="239.0625" xlink:href="#DejaVuSans-97"/>
      <use x="300.341797" xlink:href="#DejaVuSans-110"/>
      <use x="363.720703" xlink:href="#DejaVuSans-32"/>
      <use x="395.507812" xlink:href="#DejaVuSans-97"/>
      <use x="456.787109" xlink:href="#DejaVuSans-99"/>
      <use x="511.767578" xlink:href="#DejaVuSans-99"/>
      <use x="566.748047" xlink:href="#DejaVuSans-117"/>
      <use x="630.126953" xlink:href="#DejaVuSans-114"/>
      <use x="671.240234" xlink:href="#DejaVuSans-97"/>
      <use x="732.519531" xlink:href="#DejaVuSans-99"/>
      <use x="787.5" xlink:href="#DejaVuSans-121"/>
      <use x="846.679688" xlink:href="#DejaVuSans-32"/>
      <use x="878.466797" xlink:href="#DejaVuSans-40"/>
      <use x="917.480469" xlink:href="#DejaVuSans-37"/>
      <use x="1012.5" xlink:href="#DejaVuSans-41"/>
      <use x="1051.513672" xlink:href="#DejaVuSans-32"/>
      <use x="1083.300781" xlink:href="#DejaVuSans-47"/>
      <use x="1116.992188" xlink:href="#DejaVuSans-32"/>
      <use x="1148.779297" xlink:href="#DejaVuSans-105"/>
      <use x="1176.5625" xlink:href="#DejaVuSans-116"/>
      <use x="1215.771484" xlink:href="#DejaVuSans-101"/>
      <use x="1277.294922" xlink:href="#DejaVuSans-114"/>
      <use x="1318.408203" xlink:href="#DejaVuSans-97"/>
      <use x="1379.6875" xlink:href="#DejaVuSans-116"/>
      <use x="1418.896484" xlink:href="#DejaVuSans-105"/>
      <use x="1446.679688" xlink:href="#DejaVuSans-111"/>
      <use x="1507.861328" xlink:href="#DejaVuSans-110"/>
     </g>
    </g>
    <g id="patch_15">
     <path d="M 420.520312 269.317187 
L 440.520312 269.317187 
L 440.520312 262.317187 
L 420.520312 262.317187 
z
" style="fill:#008000;opacity:0.35;"/>
    </g>
    <g id="text_31">
     <!-- Range of accuracy values -->
     <g transform="translate(448.520312 269.317187)scale(0.1 -0.1)">
      <use xlink:href="#DejaVuSans-82"/>
      <use x="67.232422" xlink:href="#DejaVuSans-97"/>
      <use x="128.511719" xlink:href="#DejaVuSans-110"/>
      <use x="191.890625" xlink:href="#DejaVuSans-103"/>
      <use x="255.367188" xlink:href="#DejaVuSans-101"/>
      <use x="316.890625" xlink:href="#DejaVuSans-32"/>
      <use x="348.677734" xlink:href="#DejaVuSans-111"/>
      <use x="409.859375" xlink:href="#DejaVuSans-102"/>
      <use x="445.064453" xlink:href="#DejaVuSans-32"/>
      <use x="476.851562" xlink:href="#DejaVuSans-97"/>
      <use x="538.130859" xlink:href="#DejaVuSans-99"/>
      <use x="593.111328" xlink:href="#DejaVuSans-99"/>
      <use x="648.091797" xlink:href="#DejaVuSans-117"/>
      <use x="711.470703" xlink:href="#DejaVuSans-114"/>
      <use x="752.583984" xlink:href="#DejaVuSans-97"/>
      <use x="813.863281" xlink:href="#DejaVuSans-99"/>
      <use x="868.84375" xlink:href="#DejaVuSans-121"/>
      <use x="928.023438" xlink:href="#DejaVuSans-32"/>
      <use x="959.810547" xlink:href="#DejaVuSans-118"/>
      <use x="1018.990234" xlink:href="#DejaVuSans-97"/>
      <use x="1080.269531" xlink:href="#DejaVuSans-108"/>
      <use x="1108.052734" xlink:href="#DejaVuSans-117"/>
      <use x="1171.431641" xlink:href="#DejaVuSans-101"/>
      <use x="1232.955078" xlink:href="#DejaVuSans-115"/>
     </g>
    </g>
   </g>
  </g>
  <g id="axes_3">
   <g id="patch_16">
    <path d="M 56.64375 582.796875 
L 310.280114 582.796875 
L 310.280114 330.796875 
L 56.64375 330.796875 
z
" style="fill:#ffffff;"/>
   </g>
   <g id="PolyCollection_3">
    <path clip-path="url(#p913cfa6e36)" d="M 59.313606 344.53494 
L 59.313606 355.427843 
L 61.983463 353.476875 
L 64.653319 351.688488 
L 67.323176 354.208488 
L 69.993032 357.622681 
L 72.662889 350.631714 
L 75.332745 350.550423 
L 78.002602 354.533649 
L 80.672458 351.282036 
L 83.342315 357.29752 
L 86.012171 353.802036 
L 88.682028 352.582681 
L 91.351884 351.119456 
L 94.02174 354.940101 
L 96.691597 353.151714 
L 99.361453 351.444617 
L 102.03131 349.249778 
L 104.701166 352.25752 
L 107.371023 352.09494 
L 110.040879 354.289778 
L 112.710736 349.981391 
L 115.380592 352.33881 
L 118.050449 355.021391 
L 120.720305 355.183972 
L 123.390161 359.73623 
L 126.060018 351.769778 
L 128.729874 357.947843 
L 131.399731 352.989133 
L 134.069587 354.452359 
L 136.739444 348.924617 
L 136.766142 348.924617 
L 139.4093 348.274294 
L 142.079157 353.558165 
L 144.749013 358.354294 
L 147.41887 350.956875 
L 150.088726 357.37881 
L 152.758583 348.843327 
L 155.428439 352.17623 
L 158.098295 351.282036 
L 160.768152 350.794294 
L 163.438008 355.021391 
L 166.107865 350.387843 
L 168.777721 349.57494 
L 171.447578 351.688488 
L 174.117434 350.794294 
L 176.787291 350.794294 
L 179.457147 352.907843 
L 182.127004 349.900101 
L 184.79686 351.282036 
L 187.466717 349.900101 
L 190.136573 351.363327 
L 192.806429 356.647198 
L 195.476286 352.33881 
L 198.146142 348.436875 
L 200.815999 350.794294 
L 203.485855 349.65623 
L 206.155712 349.412359 
L 208.825568 358.273004 
L 211.495425 351.200746 
L 214.165281 356.809778 
L 216.835138 356.891069 
L 216.861836 356.891069 
L 219.504994 354.61494 
L 222.17485 350.875585 
L 224.844707 361.036875 
L 227.514563 351.932359 
L 230.18442 354.289778 
L 232.854276 351.363327 
L 235.524133 353.476875 
L 238.193989 353.395585 
L 240.863846 352.33881 
L 243.533702 348.762036 
L 246.203559 350.713004 
L 248.873415 350.143972 
L 251.543272 350.143972 
L 254.213128 354.61494 
L 256.882984 349.331069 
L 259.552841 351.119456 
L 262.222697 350.306552 
L 264.892554 349.412359 
L 267.56241 348.924617 
L 270.232267 356.484617 
L 272.902123 352.745262 
L 275.57198 350.550423 
L 278.241836 349.981391 
L 280.911693 364.044617 
L 283.581549 352.25752 
L 286.251406 349.81881 
L 288.921262 351.769778 
L 291.591118 349.900101 
L 294.260975 349.981391 
L 296.930831 351.769778 
L 296.95753 351.769778 
L 296.95753 345.347843 
L 296.95753 345.347843 
L 296.930831 345.347843 
L 294.260975 346.485907 
L 291.591118 344.61623 
L 288.921262 345.266552 
L 286.251406 345.347843 
L 283.581549 345.103972 
L 280.911693 344.53494 
L 278.241836 344.291069 
L 275.57198 343.965907 
L 272.902123 344.209778 
L 270.232267 343.884617 
L 267.56241 344.291069 
L 264.892554 346.079456 
L 262.222697 344.047198 
L 259.552841 344.453649 
L 256.882984 343.559456 
L 254.213128 344.128488 
L 251.543272 344.69752 
L 248.873415 344.291069 
L 246.203559 343.965907 
L 243.533702 343.478165 
L 240.863846 344.128488 
L 238.193989 344.209778 
L 235.524133 343.559456 
L 232.854276 344.941391 
L 230.18442 344.128488 
L 227.514563 344.047198 
L 224.844707 343.640746 
L 222.17485 345.510423 
L 219.504994 344.047198 
L 216.861836 344.77881 
L 216.835138 344.77881 
L 214.165281 344.77881 
L 211.495425 344.941391 
L 208.825568 344.941391 
L 206.155712 344.77881 
L 203.485855 346.323327 
L 200.815999 345.835585 
L 198.146142 345.266552 
L 195.476286 345.835585 
L 192.806429 346.404617 
L 190.136573 345.103972 
L 187.466717 344.047198 
L 184.79686 343.965907 
L 182.127004 345.266552 
L 179.457147 344.61623 
L 176.787291 345.266552 
L 174.117434 344.61623 
L 171.447578 345.185262 
L 168.777721 344.69752 
L 166.107865 344.372359 
L 163.438008 344.372359 
L 160.768152 344.047198 
L 158.098295 343.884617 
L 155.428439 344.77881 
L 152.758583 344.77881 
L 150.088726 343.559456 
L 147.41887 342.990423 
L 144.749013 343.315585 
L 142.079157 343.315585 
L 139.4093 344.453649 
L 136.766142 344.209778 
L 136.739444 344.209778 
L 134.069587 344.860101 
L 131.399731 345.022681 
L 128.729874 345.835585 
L 126.060018 344.77881 
L 123.390161 345.429133 
L 120.720305 345.998165 
L 118.050449 345.266552 
L 115.380592 344.61623 
L 112.710736 344.69752 
L 110.040879 344.61623 
L 107.371023 344.941391 
L 104.701166 345.510423 
L 102.03131 345.429133 
L 99.361453 345.591714 
L 96.691597 346.242036 
L 94.02174 345.429133 
L 91.351884 345.103972 
L 88.682028 345.429133 
L 86.012171 346.079456 
L 83.342315 344.61623 
L 80.672458 344.453649 
L 78.002602 346.242036 
L 75.332745 344.047198 
L 72.662889 345.103972 
L 69.993032 345.673004 
L 67.323176 344.53494 
L 64.653319 345.266552 
L 61.983463 343.803327 
L 59.313606 344.53494 
z
" style="fill:#ff0000;fill-opacity:0.35;"/>
   </g>
   <g id="matplotlib.axis_5">
    <g id="xtick_11">
     <g id="line2d_31">
      <g>
       <use style="stroke:#000000;stroke-width:0.8;" x="56.64375" xlink:href="#m392b59a4c1" y="582.796875"/>
      </g>
     </g>
     <g id="text_32">
      <!-- 0 -->
      <g transform="translate(53.4625 597.395312)scale(0.1 -0.1)">
       <use xlink:href="#DejaVuSans-48"/>
      </g>
     </g>
    </g>
    <g id="xtick_12">
     <g id="line2d_32">
      <g>
       <use style="stroke:#000000;stroke-width:0.8;" x="110.040879" xlink:href="#m392b59a4c1" y="582.796875"/>
      </g>
     </g>
     <g id="text_33">
      <!-- 2000 -->
      <g transform="translate(97.315879 597.395312)scale(0.1 -0.1)">
       <use xlink:href="#DejaVuSans-50"/>
       <use x="63.623047" xlink:href="#DejaVuSans-48"/>
       <use x="127.246094" xlink:href="#DejaVuSans-48"/>
       <use x="190.869141" xlink:href="#DejaVuSans-48"/>
      </g>
     </g>
    </g>
    <g id="xtick_13">
     <g id="line2d_33">
      <g>
       <use style="stroke:#000000;stroke-width:0.8;" x="163.438008" xlink:href="#m392b59a4c1" y="582.796875"/>
      </g>
     </g>
     <g id="text_34">
      <!-- 4000 -->
      <g transform="translate(150.713008 597.395312)scale(0.1 -0.1)">
       <use xlink:href="#DejaVuSans-52"/>
       <use x="63.623047" xlink:href="#DejaVuSans-48"/>
       <use x="127.246094" xlink:href="#DejaVuSans-48"/>
       <use x="190.869141" xlink:href="#DejaVuSans-48"/>
      </g>
     </g>
    </g>
    <g id="xtick_14">
     <g id="line2d_34">
      <g>
       <use style="stroke:#000000;stroke-width:0.8;" x="216.835138" xlink:href="#m392b59a4c1" y="582.796875"/>
      </g>
     </g>
     <g id="text_35">
      <!-- 6000 -->
      <g transform="translate(204.110138 597.395312)scale(0.1 -0.1)">
       <use xlink:href="#DejaVuSans-54"/>
       <use x="63.623047" xlink:href="#DejaVuSans-48"/>
       <use x="127.246094" xlink:href="#DejaVuSans-48"/>
       <use x="190.869141" xlink:href="#DejaVuSans-48"/>
      </g>
     </g>
    </g>
    <g id="xtick_15">
     <g id="line2d_35">
      <g>
       <use style="stroke:#000000;stroke-width:0.8;" x="270.232267" xlink:href="#m392b59a4c1" y="582.796875"/>
      </g>
     </g>
     <g id="text_36">
      <!-- 8000 -->
      <g transform="translate(257.507267 597.395312)scale(0.1 -0.1)">
       <use xlink:href="#DejaVuSans-56"/>
       <use x="63.623047" xlink:href="#DejaVuSans-48"/>
       <use x="127.246094" xlink:href="#DejaVuSans-48"/>
       <use x="190.869141" xlink:href="#DejaVuSans-48"/>
      </g>
     </g>
    </g>
    <g id="text_37">
     <!-- Iterations -->
     <g transform="translate(154.885994 612.593125)scale(0.12 -0.12)">
      <defs>
       <path d="M 9.8125 72.90625 
L 19.671875 72.90625 
L 19.671875 0 
L 9.8125 0 
z
" id="DejaVuSans-73"/>
      </defs>
      <use xlink:href="#DejaVuSans-73"/>
      <use x="29.492188" xlink:href="#DejaVuSans-116"/>
      <use x="68.701172" xlink:href="#DejaVuSans-101"/>
      <use x="130.224609" xlink:href="#DejaVuSans-114"/>
      <use x="171.337891" xlink:href="#DejaVuSans-97"/>
      <use x="232.617188" xlink:href="#DejaVuSans-116"/>
      <use x="271.826172" xlink:href="#DejaVuSans-105"/>
      <use x="299.609375" xlink:href="#DejaVuSans-111"/>
      <use x="360.791016" xlink:href="#DejaVuSans-110"/>
      <use x="424.169922" xlink:href="#DejaVuSans-115"/>
     </g>
    </g>
   </g>
   <g id="matplotlib.axis_6">
    <g id="ytick_15">
     <g id="line2d_36">
      <g>
       <use style="stroke:#000000;stroke-width:0.8;" x="56.64375" xlink:href="#ma948718c39" y="582.796875"/>
      </g>
     </g>
     <g id="text_38">
      <!-- 40 -->
      <g transform="translate(36.91875 586.596094)scale(0.1 -0.1)">
       <use xlink:href="#DejaVuSans-52"/>
       <use x="63.623047" xlink:href="#DejaVuSans-48"/>
      </g>
     </g>
    </g>
    <g id="ytick_16">
     <g id="line2d_37">
      <g>
       <use style="stroke:#000000;stroke-width:0.8;" x="56.64375" xlink:href="#ma948718c39" y="542.151714"/>
      </g>
     </g>
     <g id="text_39">
      <!-- 50 -->
      <g transform="translate(36.91875 545.950932)scale(0.1 -0.1)">
       <use xlink:href="#DejaVuSans-53"/>
       <use x="63.623047" xlink:href="#DejaVuSans-48"/>
      </g>
     </g>
    </g>
    <g id="ytick_17">
     <g id="line2d_38">
      <g>
       <use style="stroke:#000000;stroke-width:0.8;" x="56.64375" xlink:href="#ma948718c39" y="501.506552"/>
      </g>
     </g>
     <g id="text_40">
      <!-- 60 -->
      <g transform="translate(36.91875 505.305771)scale(0.1 -0.1)">
       <use xlink:href="#DejaVuSans-54"/>
       <use x="63.623047" xlink:href="#DejaVuSans-48"/>
      </g>
     </g>
    </g>
    <g id="ytick_18">
     <g id="line2d_39">
      <g>
       <use style="stroke:#000000;stroke-width:0.8;" x="56.64375" xlink:href="#ma948718c39" y="460.861391"/>
      </g>
     </g>
     <g id="text_41">
      <!-- 70 -->
      <g transform="translate(36.91875 464.66061)scale(0.1 -0.1)">
       <use xlink:href="#DejaVuSans-55"/>
       <use x="63.623047" xlink:href="#DejaVuSans-48"/>
      </g>
     </g>
    </g>
    <g id="ytick_19">
     <g id="line2d_40">
      <g>
       <use style="stroke:#000000;stroke-width:0.8;" x="56.64375" xlink:href="#ma948718c39" y="420.21623"/>
      </g>
     </g>
     <g id="text_42">
      <!-- 80 -->
      <g transform="translate(36.91875 424.015449)scale(0.1 -0.1)">
       <use xlink:href="#DejaVuSans-56"/>
       <use x="63.623047" xlink:href="#DejaVuSans-48"/>
      </g>
     </g>
    </g>
    <g id="ytick_20">
     <g id="line2d_41">
      <g>
       <use style="stroke:#000000;stroke-width:0.8;" x="56.64375" xlink:href="#ma948718c39" y="379.571069"/>
      </g>
     </g>
     <g id="text_43">
      <!-- 90 -->
      <g transform="translate(36.91875 383.370287)scale(0.1 -0.1)">
       <use xlink:href="#DejaVuSans-57"/>
       <use x="63.623047" xlink:href="#DejaVuSans-48"/>
      </g>
     </g>
    </g>
    <g id="ytick_21">
     <g id="line2d_42">
      <g>
       <use style="stroke:#000000;stroke-width:0.8;" x="56.64375" xlink:href="#ma948718c39" y="338.925907"/>
      </g>
     </g>
     <g id="text_44">
      <!-- 100 -->
      <g transform="translate(30.55625 342.725126)scale(0.1 -0.1)">
       <use xlink:href="#DejaVuSans-49"/>
       <use x="63.623047" xlink:href="#DejaVuSans-48"/>
       <use x="127.246094" xlink:href="#DejaVuSans-48"/>
      </g>
     </g>
    </g>
    <g id="text_45">
     <!-- Trained with T2 -->
     <g transform="translate(22.396875 533.326562)rotate(-90)scale(0.2 -0.2)">
      <use xlink:href="#DejaVuSans-84"/>
      <use x="46.333984" xlink:href="#DejaVuSans-114"/>
      <use x="87.447266" xlink:href="#DejaVuSans-97"/>
      <use x="148.726562" xlink:href="#DejaVuSans-105"/>
      <use x="176.509766" xlink:href="#DejaVuSans-110"/>
      <use x="239.888672" xlink:href="#DejaVuSans-101"/>
      <use x="301.412109" xlink:href="#DejaVuSans-100"/>
      <use x="364.888672" xlink:href="#DejaVuSans-32"/>
      <use x="396.675781" xlink:href="#DejaVuSans-119"/>
      <use x="478.462891" xlink:href="#DejaVuSans-105"/>
      <use x="506.246094" xlink:href="#DejaVuSans-116"/>
      <use x="545.455078" xlink:href="#DejaVuSans-104"/>
      <use x="608.833984" xlink:href="#DejaVuSans-32"/>
      <use x="640.621094" xlink:href="#DejaVuSans-84"/>
      <use x="701.705078" xlink:href="#DejaVuSans-50"/>
     </g>
    </g>
   </g>
   <g id="line2d_43">
    <path clip-path="url(#p913cfa6e36)" d="M 59.313606 345.754294 
L 61.983463 348.436875 
L 64.653319 349.412359 
L 67.323176 345.916875 
L 69.993032 348.436875 
L 72.662889 345.998165 
L 75.332745 348.680746 
L 78.002602 347.542681 
L 80.672458 348.843327 
L 83.342315 349.81881 
L 86.012171 351.607198 
L 88.682028 347.21752 
L 91.351884 348.436875 
L 94.02174 347.867843 
L 96.691597 348.518165 
L 99.361453 349.331069 
L 102.03131 347.949133 
L 104.701166 348.924617 
L 107.371023 348.518165 
L 110.040879 346.729778 
L 112.710736 348.436875 
L 115.380592 346.811069 
L 118.050449 346.973649 
L 120.720305 347.461391 
L 123.390161 346.811069 
L 126.060018 348.843327 
L 128.729874 346.648488 
L 131.399731 350.225262 
L 134.069587 345.347843 
L 136.739444 347.380101 
L 136.766142 347.380101 
L 139.4093 346.079456 
L 142.079157 344.941391 
L 144.749013 349.005907 
L 147.41887 347.461391 
L 150.088726 346.973649 
L 152.758583 346.079456 
L 155.428439 345.429133 
L 158.098295 347.05494 
L 160.768152 349.168488 
L 163.438008 347.542681 
L 166.107865 345.754294 
L 168.777721 345.022681 
L 171.447578 348.111714 
L 174.117434 348.030423 
L 176.787291 349.65623 
L 179.457147 347.13623 
L 182.127004 346.729778 
L 184.79686 347.461391 
L 187.466717 347.461391 
L 190.136573 348.680746 
L 192.806429 348.518165 
L 195.476286 348.436875 
L 198.146142 347.705262 
L 200.815999 349.493649 
L 203.485855 347.867843 
L 206.155712 346.811069 
L 208.825568 345.835585 
L 211.495425 347.705262 
L 214.165281 347.949133 
L 216.835138 347.867843 
L 216.861836 347.867843 
L 219.504994 347.705262 
L 222.17485 346.892359 
L 224.844707 347.705262 
L 227.514563 346.485907 
L 230.18442 346.567198 
L 232.854276 345.754294 
L 235.524133 349.981391 
L 238.193989 348.111714 
L 240.863846 347.786552 
L 243.533702 346.567198 
L 246.203559 346.892359 
L 248.873415 349.249778 
L 251.543272 347.380101 
L 254.213128 347.13623 
L 256.882984 347.05494 
L 259.552841 347.623972 
L 262.222697 346.242036 
L 264.892554 346.485907 
L 267.56241 345.916875 
L 270.232267 347.542681 
L 272.902123 347.29881 
L 275.57198 347.949133 
L 278.241836 347.623972 
L 280.911693 349.412359 
L 283.581549 349.005907 
L 286.251406 348.762036 
L 288.921262 348.843327 
L 291.591118 348.111714 
L 294.260975 347.786552 
L 296.930831 348.193004 
L 296.95753 348.193004 
" style="fill:none;stroke:#ff0000;stroke-linecap:square;"/>
   </g>
   <g id="patch_17">
    <path d="M 56.64375 582.796875 
L 56.64375 330.796875 
" style="fill:none;stroke:#000000;stroke-linecap:square;stroke-linejoin:miter;stroke-width:0.8;"/>
   </g>
   <g id="patch_18">
    <path d="M 310.280114 582.796875 
L 310.280114 330.796875 
" style="fill:none;stroke:#000000;stroke-linecap:square;stroke-linejoin:miter;stroke-width:0.8;"/>
   </g>
   <g id="patch_19">
    <path d="M 56.64375 582.796875 
L 310.280114 582.796875 
" style="fill:none;stroke:#000000;stroke-linecap:square;stroke-linejoin:miter;stroke-width:0.8;"/>
   </g>
   <g id="patch_20">
    <path d="M 56.64375 330.796875 
L 310.280114 330.796875 
" style="fill:none;stroke:#000000;stroke-linecap:square;stroke-linejoin:miter;stroke-width:0.8;"/>
   </g>
   <g id="legend_3">
    <g id="patch_21">
     <path d="M 114.156676 577.796875 
L 303.280114 577.796875 
Q 305.280114 577.796875 305.280114 575.796875 
L 305.280114 547.440625 
Q 305.280114 545.440625 303.280114 545.440625 
L 114.156676 545.440625 
Q 112.156676 545.440625 112.156676 547.440625 
L 112.156676 575.796875 
Q 112.156676 577.796875 114.156676 577.796875 
z
" style="fill:#ffffff;opacity:0.8;stroke:#cccccc;stroke-linejoin:miter;"/>
    </g>
    <g id="line2d_44">
     <path d="M 116.156676 553.539062 
L 136.156676 553.539062 
" style="fill:none;stroke:#ff0000;stroke-linecap:square;"/>
    </g>
    <g id="line2d_45"/>
    <g id="text_46">
     <!-- Median accuracy (%) / iteration -->
     <g transform="translate(144.156676 557.039062)scale(0.1 -0.1)">
      <use xlink:href="#DejaVuSans-77"/>
      <use x="86.279297" xlink:href="#DejaVuSans-101"/>
      <use x="147.802734" xlink:href="#DejaVuSans-100"/>
      <use x="211.279297" xlink:href="#DejaVuSans-105"/>
      <use x="239.0625" xlink:href="#DejaVuSans-97"/>
      <use x="300.341797" xlink:href="#DejaVuSans-110"/>
      <use x="363.720703" xlink:href="#DejaVuSans-32"/>
      <use x="395.507812" xlink:href="#DejaVuSans-97"/>
      <use x="456.787109" xlink:href="#DejaVuSans-99"/>
      <use x="511.767578" xlink:href="#DejaVuSans-99"/>
      <use x="566.748047" xlink:href="#DejaVuSans-117"/>
      <use x="630.126953" xlink:href="#DejaVuSans-114"/>
      <use x="671.240234" xlink:href="#DejaVuSans-97"/>
      <use x="732.519531" xlink:href="#DejaVuSans-99"/>
      <use x="787.5" xlink:href="#DejaVuSans-121"/>
      <use x="846.679688" xlink:href="#DejaVuSans-32"/>
      <use x="878.466797" xlink:href="#DejaVuSans-40"/>
      <use x="917.480469" xlink:href="#DejaVuSans-37"/>
      <use x="1012.5" xlink:href="#DejaVuSans-41"/>
      <use x="1051.513672" xlink:href="#DejaVuSans-32"/>
      <use x="1083.300781" xlink:href="#DejaVuSans-47"/>
      <use x="1116.992188" xlink:href="#DejaVuSans-32"/>
      <use x="1148.779297" xlink:href="#DejaVuSans-105"/>
      <use x="1176.5625" xlink:href="#DejaVuSans-116"/>
      <use x="1215.771484" xlink:href="#DejaVuSans-101"/>
      <use x="1277.294922" xlink:href="#DejaVuSans-114"/>
      <use x="1318.408203" xlink:href="#DejaVuSans-97"/>
      <use x="1379.6875" xlink:href="#DejaVuSans-116"/>
      <use x="1418.896484" xlink:href="#DejaVuSans-105"/>
      <use x="1446.679688" xlink:href="#DejaVuSans-111"/>
      <use x="1507.861328" xlink:href="#DejaVuSans-110"/>
     </g>
    </g>
    <g id="patch_22">
     <path d="M 116.156676 571.717187 
L 136.156676 571.717187 
L 136.156676 564.717187 
L 116.156676 564.717187 
z
" style="fill:#ff0000;opacity:0.35;"/>
    </g>
    <g id="text_47">
     <!-- Range of accuracy values -->
     <g transform="translate(144.156676 571.717187)scale(0.1 -0.1)">
      <use xlink:href="#DejaVuSans-82"/>
      <use x="67.232422" xlink:href="#DejaVuSans-97"/>
      <use x="128.511719" xlink:href="#DejaVuSans-110"/>
      <use x="191.890625" xlink:href="#DejaVuSans-103"/>
      <use x="255.367188" xlink:href="#DejaVuSans-101"/>
      <use x="316.890625" xlink:href="#DejaVuSans-32"/>
      <use x="348.677734" xlink:href="#DejaVuSans-111"/>
      <use x="409.859375" xlink:href="#DejaVuSans-102"/>
      <use x="445.064453" xlink:href="#DejaVuSans-32"/>
      <use x="476.851562" xlink:href="#DejaVuSans-97"/>
      <use x="538.130859" xlink:href="#DejaVuSans-99"/>
      <use x="593.111328" xlink:href="#DejaVuSans-99"/>
      <use x="648.091797" xlink:href="#DejaVuSans-117"/>
      <use x="711.470703" xlink:href="#DejaVuSans-114"/>
      <use x="752.583984" xlink:href="#DejaVuSans-97"/>
      <use x="813.863281" xlink:href="#DejaVuSans-99"/>
      <use x="868.84375" xlink:href="#DejaVuSans-121"/>
      <use x="928.023438" xlink:href="#DejaVuSans-32"/>
      <use x="959.810547" xlink:href="#DejaVuSans-118"/>
      <use x="1018.990234" xlink:href="#DejaVuSans-97"/>
      <use x="1080.269531" xlink:href="#DejaVuSans-108"/>
      <use x="1108.052734" xlink:href="#DejaVuSans-117"/>
      <use x="1171.431641" xlink:href="#DejaVuSans-101"/>
      <use x="1232.955078" xlink:href="#DejaVuSans-115"/>
     </g>
    </g>
   </g>
  </g>
  <g id="axes_4">
   <g id="patch_23">
    <path d="M 361.007386 582.796875 
L 614.64375 582.796875 
L 614.64375 330.796875 
L 361.007386 330.796875 
z
" style="fill:#ffffff;"/>
   </g>
   <g id="PolyCollection_4">
    <path clip-path="url(#p9fac4ed460)" d="M 363.677243 344.047198 
L 363.677243 355.427843 
L 366.347099 353.233004 
L 369.016956 351.607198 
L 371.686812 352.907843 
L 374.356669 356.972359 
L 377.026525 350.875585 
L 379.696382 351.444617 
L 382.366238 354.452359 
L 385.036094 351.932359 
L 387.705951 357.29752 
L 390.375807 352.25752 
L 393.045664 351.119456 
L 395.71552 351.525907 
L 398.385377 355.996875 
L 401.055233 352.013649 
L 403.72509 351.038165 
L 406.394946 349.249778 
L 409.064803 352.663972 
L 411.734659 351.038165 
L 414.404516 354.371069 
L 417.074372 350.875585 
L 419.744228 352.582681 
L 422.414085 355.590423 
L 425.083941 355.265262 
L 427.753798 359.492359 
L 430.423654 351.851069 
L 433.093511 357.053649 
L 435.763367 354.127198 
L 438.433224 354.533649 
L 441.10308 349.981391 
L 441.129779 349.981391 
L 443.772937 349.168488 
L 446.442793 352.420101 
L 449.11265 357.053649 
L 451.782506 350.875585 
L 454.452362 355.346552 
L 457.122219 348.924617 
L 459.792075 353.070423 
L 462.461932 351.363327 
L 465.131788 350.956875 
L 467.801645 353.964617 
L 470.471501 351.282036 
L 473.141358 349.65623 
L 475.811214 352.013649 
L 478.481071 350.062681 
L 481.150927 351.119456 
L 483.820783 353.070423 
L 486.49064 351.932359 
L 489.160496 351.851069 
L 491.830353 350.062681 
L 494.500209 352.663972 
L 497.170066 358.923327 
L 499.839922 354.208488 
L 502.509779 349.900101 
L 505.179635 350.956875 
L 507.849492 349.087198 
L 510.519348 349.493649 
L 513.189205 360.874294 
L 515.859061 351.363327 
L 518.528917 359.085907 
L 521.198774 356.159456 
L 521.225472 356.159456 
L 523.86863 355.265262 
L 526.538487 350.956875 
L 529.208343 359.980101 
L 531.8782 351.525907 
L 534.548056 353.476875 
L 537.217913 352.17623 
L 539.887769 353.395585 
L 542.557626 355.183972 
L 545.227482 353.395585 
L 547.897339 349.331069 
L 550.567195 350.875585 
L 553.237051 349.81881 
L 555.906908 349.65623 
L 558.576764 356.078165 
L 561.246621 349.249778 
L 563.916477 352.013649 
L 566.586334 349.81881 
L 569.25619 349.57494 
L 571.926047 347.949133 
L 574.595903 360.549133 
L 577.26576 352.17623 
L 579.935616 349.900101 
L 582.605472 349.005907 
L 585.275329 364.288488 
L 587.945185 353.070423 
L 590.615042 349.981391 
L 593.284898 352.501391 
L 595.954755 349.900101 
L 598.624611 350.225262 
L 601.294468 352.013649 
L 601.321166 352.013649 
L 601.321166 346.648488 
L 601.321166 346.648488 
L 601.294468 346.648488 
L 598.624611 347.949133 
L 595.954755 345.510423 
L 593.284898 346.160746 
L 590.615042 345.266552 
L 587.945185 345.591714 
L 585.275329 345.673004 
L 582.605472 344.941391 
L 579.935616 344.61623 
L 577.26576 344.53494 
L 574.595903 344.453649 
L 571.926047 344.77881 
L 569.25619 345.673004 
L 566.586334 345.185262 
L 563.916477 345.185262 
L 561.246621 344.69752 
L 558.576764 344.61623 
L 555.906908 345.022681 
L 553.237051 345.347843 
L 550.567195 344.860101 
L 547.897339 344.047198 
L 545.227482 344.53494 
L 542.557626 344.69752 
L 539.887769 344.209778 
L 537.217913 345.754294 
L 534.548056 344.53494 
L 531.8782 344.128488 
L 529.208343 344.209778 
L 526.538487 346.079456 
L 523.86863 345.673004 
L 521.225472 346.242036 
L 521.198774 346.242036 
L 518.528917 345.916875 
L 515.859061 345.266552 
L 513.189205 345.347843 
L 510.519348 344.860101 
L 507.849492 345.916875 
L 505.179635 345.510423 
L 502.509779 344.53494 
L 499.839922 346.648488 
L 497.170066 346.892359 
L 494.500209 345.103972 
L 491.830353 344.047198 
L 489.160496 344.372359 
L 486.49064 344.860101 
L 483.820783 344.77881 
L 481.150927 345.835585 
L 478.481071 344.53494 
L 475.811214 345.266552 
L 473.141358 345.185262 
L 470.471501 344.860101 
L 467.801645 345.185262 
L 465.131788 345.022681 
L 462.461932 344.69752 
L 459.792075 345.185262 
L 457.122219 345.347843 
L 454.452362 344.941391 
L 451.782506 344.53494 
L 449.11265 345.022681 
L 446.442793 344.77881 
L 443.772937 344.941391 
L 441.129779 344.941391 
L 441.10308 344.941391 
L 438.433224 345.347843 
L 435.763367 347.05494 
L 433.093511 346.973649 
L 430.423654 346.567198 
L 427.753798 346.160746 
L 425.083941 346.323327 
L 422.414085 346.811069 
L 419.744228 345.103972 
L 417.074372 345.673004 
L 414.404516 344.860101 
L 411.734659 345.022681 
L 409.064803 345.591714 
L 406.394946 344.372359 
L 403.72509 345.266552 
L 401.055233 347.380101 
L 398.385377 346.242036 
L 395.71552 346.160746 
L 393.045664 346.079456 
L 390.375807 346.404617 
L 387.705951 344.941391 
L 385.036094 345.266552 
L 382.366238 347.705262 
L 379.696382 345.022681 
L 377.026525 345.347843 
L 374.356669 346.404617 
L 371.686812 344.860101 
L 369.016956 347.380101 
L 366.347099 344.69752 
L 363.677243 344.047198 
z
" style="fill-opacity:0.35;"/>
   </g>
   <g id="matplotlib.axis_7">
    <g id="xtick_16">
     <g id="line2d_46">
      <g>
       <use style="stroke:#000000;stroke-width:0.8;" x="361.007386" xlink:href="#m392b59a4c1" y="582.796875"/>
      </g>
     </g>
     <g id="text_48">
      <!-- 0 -->
      <g transform="translate(357.826136 597.395312)scale(0.1 -0.1)">
       <use xlink:href="#DejaVuSans-48"/>
      </g>
     </g>
    </g>
    <g id="xtick_17">
     <g id="line2d_47">
      <g>
       <use style="stroke:#000000;stroke-width:0.8;" x="414.404516" xlink:href="#m392b59a4c1" y="582.796875"/>
      </g>
     </g>
     <g id="text_49">
      <!-- 2000 -->
      <g transform="translate(401.679516 597.395312)scale(0.1 -0.1)">
       <use xlink:href="#DejaVuSans-50"/>
       <use x="63.623047" xlink:href="#DejaVuSans-48"/>
       <use x="127.246094" xlink:href="#DejaVuSans-48"/>
       <use x="190.869141" xlink:href="#DejaVuSans-48"/>
      </g>
     </g>
    </g>
    <g id="xtick_18">
     <g id="line2d_48">
      <g>
       <use style="stroke:#000000;stroke-width:0.8;" x="467.801645" xlink:href="#m392b59a4c1" y="582.796875"/>
      </g>
     </g>
     <g id="text_50">
      <!-- 4000 -->
      <g transform="translate(455.076645 597.395312)scale(0.1 -0.1)">
       <use xlink:href="#DejaVuSans-52"/>
       <use x="63.623047" xlink:href="#DejaVuSans-48"/>
       <use x="127.246094" xlink:href="#DejaVuSans-48"/>
       <use x="190.869141" xlink:href="#DejaVuSans-48"/>
      </g>
     </g>
    </g>
    <g id="xtick_19">
     <g id="line2d_49">
      <g>
       <use style="stroke:#000000;stroke-width:0.8;" x="521.198774" xlink:href="#m392b59a4c1" y="582.796875"/>
      </g>
     </g>
     <g id="text_51">
      <!-- 6000 -->
      <g transform="translate(508.473774 597.395312)scale(0.1 -0.1)">
       <use xlink:href="#DejaVuSans-54"/>
       <use x="63.623047" xlink:href="#DejaVuSans-48"/>
       <use x="127.246094" xlink:href="#DejaVuSans-48"/>
       <use x="190.869141" xlink:href="#DejaVuSans-48"/>
      </g>
     </g>
    </g>
    <g id="xtick_20">
     <g id="line2d_50">
      <g>
       <use style="stroke:#000000;stroke-width:0.8;" x="574.595903" xlink:href="#m392b59a4c1" y="582.796875"/>
      </g>
     </g>
     <g id="text_52">
      <!-- 8000 -->
      <g transform="translate(561.870903 597.395312)scale(0.1 -0.1)">
       <use xlink:href="#DejaVuSans-56"/>
       <use x="63.623047" xlink:href="#DejaVuSans-48"/>
       <use x="127.246094" xlink:href="#DejaVuSans-48"/>
       <use x="190.869141" xlink:href="#DejaVuSans-48"/>
      </g>
     </g>
    </g>
    <g id="text_53">
     <!-- Iterations -->
     <g transform="translate(459.249631 612.593125)scale(0.12 -0.12)">
      <use xlink:href="#DejaVuSans-73"/>
      <use x="29.492188" xlink:href="#DejaVuSans-116"/>
      <use x="68.701172" xlink:href="#DejaVuSans-101"/>
      <use x="130.224609" xlink:href="#DejaVuSans-114"/>
      <use x="171.337891" xlink:href="#DejaVuSans-97"/>
      <use x="232.617188" xlink:href="#DejaVuSans-116"/>
      <use x="271.826172" xlink:href="#DejaVuSans-105"/>
      <use x="299.609375" xlink:href="#DejaVuSans-111"/>
      <use x="360.791016" xlink:href="#DejaVuSans-110"/>
      <use x="424.169922" xlink:href="#DejaVuSans-115"/>
     </g>
    </g>
   </g>
   <g id="matplotlib.axis_8">
    <g id="ytick_22">
     <g id="line2d_51">
      <g>
       <use style="stroke:#000000;stroke-width:0.8;" x="361.007386" xlink:href="#ma948718c39" y="582.796875"/>
      </g>
     </g>
     <g id="text_54">
      <!-- 40 -->
      <g transform="translate(341.282386 586.596094)scale(0.1 -0.1)">
       <use xlink:href="#DejaVuSans-52"/>
       <use x="63.623047" xlink:href="#DejaVuSans-48"/>
      </g>
     </g>
    </g>
    <g id="ytick_23">
     <g id="line2d_52">
      <g>
       <use style="stroke:#000000;stroke-width:0.8;" x="361.007386" xlink:href="#ma948718c39" y="542.151714"/>
      </g>
     </g>
     <g id="text_55">
      <!-- 50 -->
      <g transform="translate(341.282386 545.950932)scale(0.1 -0.1)">
       <use xlink:href="#DejaVuSans-53"/>
       <use x="63.623047" xlink:href="#DejaVuSans-48"/>
      </g>
     </g>
    </g>
    <g id="ytick_24">
     <g id="line2d_53">
      <g>
       <use style="stroke:#000000;stroke-width:0.8;" x="361.007386" xlink:href="#ma948718c39" y="501.506552"/>
      </g>
     </g>
     <g id="text_56">
      <!-- 60 -->
      <g transform="translate(341.282386 505.305771)scale(0.1 -0.1)">
       <use xlink:href="#DejaVuSans-54"/>
       <use x="63.623047" xlink:href="#DejaVuSans-48"/>
      </g>
     </g>
    </g>
    <g id="ytick_25">
     <g id="line2d_54">
      <g>
       <use style="stroke:#000000;stroke-width:0.8;" x="361.007386" xlink:href="#ma948718c39" y="460.861391"/>
      </g>
     </g>
     <g id="text_57">
      <!-- 70 -->
      <g transform="translate(341.282386 464.66061)scale(0.1 -0.1)">
       <use xlink:href="#DejaVuSans-55"/>
       <use x="63.623047" xlink:href="#DejaVuSans-48"/>
      </g>
     </g>
    </g>
    <g id="ytick_26">
     <g id="line2d_55">
      <g>
       <use style="stroke:#000000;stroke-width:0.8;" x="361.007386" xlink:href="#ma948718c39" y="420.21623"/>
      </g>
     </g>
     <g id="text_58">
      <!-- 80 -->
      <g transform="translate(341.282386 424.015449)scale(0.1 -0.1)">
       <use xlink:href="#DejaVuSans-56"/>
       <use x="63.623047" xlink:href="#DejaVuSans-48"/>
      </g>
     </g>
    </g>
    <g id="ytick_27">
     <g id="line2d_56">
      <g>
       <use style="stroke:#000000;stroke-width:0.8;" x="361.007386" xlink:href="#ma948718c39" y="379.571069"/>
      </g>
     </g>
     <g id="text_59">
      <!-- 90 -->
      <g transform="translate(341.282386 383.370287)scale(0.1 -0.1)">
       <use xlink:href="#DejaVuSans-57"/>
       <use x="63.623047" xlink:href="#DejaVuSans-48"/>
      </g>
     </g>
    </g>
    <g id="ytick_28">
     <g id="line2d_57">
      <g>
       <use style="stroke:#000000;stroke-width:0.8;" x="361.007386" xlink:href="#ma948718c39" y="338.925907"/>
      </g>
     </g>
     <g id="text_60">
      <!-- 100 -->
      <g transform="translate(334.919886 342.725126)scale(0.1 -0.1)">
       <use xlink:href="#DejaVuSans-49"/>
       <use x="63.623047" xlink:href="#DejaVuSans-48"/>
       <use x="127.246094" xlink:href="#DejaVuSans-48"/>
      </g>
     </g>
    </g>
   </g>
   <g id="line2d_58">
    <path clip-path="url(#p9fac4ed460)" d="M 363.677243 345.347843 
L 366.347099 347.21752 
L 369.016956 348.274294 
L 371.686812 345.835585 
L 374.356669 349.65623 
L 377.026525 348.274294 
L 379.696382 347.867843 
L 382.366238 348.924617 
L 385.036094 348.843327 
L 387.705951 349.168488 
L 390.375807 352.013649 
L 393.045664 348.030423 
L 395.71552 348.518165 
L 398.385377 349.81881 
L 401.055233 348.924617 
L 403.72509 350.143972 
L 406.394946 348.762036 
L 409.064803 349.168488 
L 411.734659 349.57494 
L 414.404516 348.193004 
L 417.074372 349.57494 
L 419.744228 346.892359 
L 422.414085 348.518165 
L 425.083941 348.355585 
L 427.753798 346.973649 
L 430.423654 348.762036 
L 433.093511 348.924617 
L 435.763367 349.331069 
L 438.433224 346.973649 
L 441.10308 348.762036 
L 441.129779 348.762036 
L 443.772937 347.461391 
L 446.442793 345.835585 
L 449.11265 350.062681 
L 451.782506 348.355585 
L 454.452362 348.193004 
L 457.122219 347.705262 
L 459.792075 347.29881 
L 462.461932 348.274294 
L 465.131788 348.436875 
L 467.801645 346.242036 
L 470.471501 346.242036 
L 473.141358 345.429133 
L 475.811214 348.518165 
L 478.481071 348.030423 
L 481.150927 349.412359 
L 483.820783 347.786552 
L 486.49064 347.867843 
L 489.160496 348.599456 
L 491.830353 347.623972 
L 494.500209 349.493649 
L 497.170066 349.005907 
L 499.839922 348.193004 
L 502.509779 348.762036 
L 505.179635 350.225262 
L 507.849492 348.924617 
L 510.519348 346.973649 
L 513.189205 347.542681 
L 515.859061 347.380101 
L 518.528917 349.331069 
L 521.198774 348.843327 
L 521.225472 348.843327 
L 523.86863 349.73752 
L 526.538487 348.274294 
L 529.208343 349.493649 
L 531.8782 347.13623 
L 534.548056 348.680746 
L 537.217913 347.461391 
L 539.887769 350.306552 
L 542.557626 347.867843 
L 545.227482 347.21752 
L 547.897339 346.892359 
L 550.567195 348.111714 
L 553.237051 349.005907 
L 555.906908 348.111714 
L 558.576764 348.355585 
L 561.246621 349.087198 
L 563.916477 349.331069 
L 566.586334 347.29881 
L 569.25619 348.111714 
L 571.926047 346.079456 
L 574.595903 347.786552 
L 577.26576 348.599456 
L 579.935616 349.900101 
L 582.605472 348.680746 
L 585.275329 348.355585 
L 587.945185 349.249778 
L 590.615042 348.436875 
L 593.284898 348.355585 
L 595.954755 349.249778 
L 598.624611 348.843327 
L 601.294468 349.168488 
L 601.321166 349.168488 
" style="fill:none;stroke:#000000;stroke-linecap:square;"/>
   </g>
   <g id="patch_24">
    <path d="M 361.007386 582.796875 
L 361.007386 330.796875 
" style="fill:none;stroke:#000000;stroke-linecap:square;stroke-linejoin:miter;stroke-width:0.8;"/>
   </g>
   <g id="patch_25">
    <path d="M 614.64375 582.796875 
L 614.64375 330.796875 
" style="fill:none;stroke:#000000;stroke-linecap:square;stroke-linejoin:miter;stroke-width:0.8;"/>
   </g>
   <g id="patch_26">
    <path d="M 361.007386 582.796875 
L 614.64375 582.796875 
" style="fill:none;stroke:#000000;stroke-linecap:square;stroke-linejoin:miter;stroke-width:0.8;"/>
   </g>
   <g id="patch_27">
    <path d="M 361.007386 330.796875 
L 614.64375 330.796875 
" style="fill:none;stroke:#000000;stroke-linecap:square;stroke-linejoin:miter;stroke-width:0.8;"/>
   </g>
   <g id="legend_4">
    <g id="patch_28">
     <path d="M 418.520312 577.796875 
L 607.64375 577.796875 
Q 609.64375 577.796875 609.64375 575.796875 
L 609.64375 547.440625 
Q 609.64375 545.440625 607.64375 545.440625 
L 418.520312 545.440625 
Q 416.520312 545.440625 416.520312 547.440625 
L 416.520312 575.796875 
Q 416.520312 577.796875 418.520312 577.796875 
z
" style="fill:#ffffff;opacity:0.8;stroke:#cccccc;stroke-linejoin:miter;"/>
    </g>
    <g id="line2d_59">
     <path d="M 420.520312 553.539062 
L 440.520312 553.539062 
" style="fill:none;stroke:#000000;stroke-linecap:square;"/>
    </g>
    <g id="line2d_60"/>
    <g id="text_61">
     <!-- Median accuracy (%) / iteration -->
     <g transform="translate(448.520312 557.039062)scale(0.1 -0.1)">
      <use xlink:href="#DejaVuSans-77"/>
      <use x="86.279297" xlink:href="#DejaVuSans-101"/>
      <use x="147.802734" xlink:href="#DejaVuSans-100"/>
      <use x="211.279297" xlink:href="#DejaVuSans-105"/>
      <use x="239.0625" xlink:href="#DejaVuSans-97"/>
      <use x="300.341797" xlink:href="#DejaVuSans-110"/>
      <use x="363.720703" xlink:href="#DejaVuSans-32"/>
      <use x="395.507812" xlink:href="#DejaVuSans-97"/>
      <use x="456.787109" xlink:href="#DejaVuSans-99"/>
      <use x="511.767578" xlink:href="#DejaVuSans-99"/>
      <use x="566.748047" xlink:href="#DejaVuSans-117"/>
      <use x="630.126953" xlink:href="#DejaVuSans-114"/>
      <use x="671.240234" xlink:href="#DejaVuSans-97"/>
      <use x="732.519531" xlink:href="#DejaVuSans-99"/>
      <use x="787.5" xlink:href="#DejaVuSans-121"/>
      <use x="846.679688" xlink:href="#DejaVuSans-32"/>
      <use x="878.466797" xlink:href="#DejaVuSans-40"/>
      <use x="917.480469" xlink:href="#DejaVuSans-37"/>
      <use x="1012.5" xlink:href="#DejaVuSans-41"/>
      <use x="1051.513672" xlink:href="#DejaVuSans-32"/>
      <use x="1083.300781" xlink:href="#DejaVuSans-47"/>
      <use x="1116.992188" xlink:href="#DejaVuSans-32"/>
      <use x="1148.779297" xlink:href="#DejaVuSans-105"/>
      <use x="1176.5625" xlink:href="#DejaVuSans-116"/>
      <use x="1215.771484" xlink:href="#DejaVuSans-101"/>
      <use x="1277.294922" xlink:href="#DejaVuSans-114"/>
      <use x="1318.408203" xlink:href="#DejaVuSans-97"/>
      <use x="1379.6875" xlink:href="#DejaVuSans-116"/>
      <use x="1418.896484" xlink:href="#DejaVuSans-105"/>
      <use x="1446.679688" xlink:href="#DejaVuSans-111"/>
      <use x="1507.861328" xlink:href="#DejaVuSans-110"/>
     </g>
    </g>
    <g id="patch_29">
     <path d="M 420.520312 571.717187 
L 440.520312 571.717187 
L 440.520312 564.717187 
L 420.520312 564.717187 
z
" style="opacity:0.35;"/>
    </g>
    <g id="text_62">
     <!-- Range of accuracy values -->
     <g transform="translate(448.520312 571.717187)scale(0.1 -0.1)">
      <use xlink:href="#DejaVuSans-82"/>
      <use x="67.232422" xlink:href="#DejaVuSans-97"/>
      <use x="128.511719" xlink:href="#DejaVuSans-110"/>
      <use x="191.890625" xlink:href="#DejaVuSans-103"/>
      <use x="255.367188" xlink:href="#DejaVuSans-101"/>
      <use x="316.890625" xlink:href="#DejaVuSans-32"/>
      <use x="348.677734" xlink:href="#DejaVuSans-111"/>
      <use x="409.859375" xlink:href="#DejaVuSans-102"/>
      <use x="445.064453" xlink:href="#DejaVuSans-32"/>
      <use x="476.851562" xlink:href="#DejaVuSans-97"/>
      <use x="538.130859" xlink:href="#DejaVuSans-99"/>
      <use x="593.111328" xlink:href="#DejaVuSans-99"/>
      <use x="648.091797" xlink:href="#DejaVuSans-117"/>
      <use x="711.470703" xlink:href="#DejaVuSans-114"/>
      <use x="752.583984" xlink:href="#DejaVuSans-97"/>
      <use x="813.863281" xlink:href="#DejaVuSans-99"/>
      <use x="868.84375" xlink:href="#DejaVuSans-121"/>
      <use x="928.023438" xlink:href="#DejaVuSans-32"/>
      <use x="959.810547" xlink:href="#DejaVuSans-118"/>
      <use x="1018.990234" xlink:href="#DejaVuSans-97"/>
      <use x="1080.269531" xlink:href="#DejaVuSans-108"/>
      <use x="1108.052734" xlink:href="#DejaVuSans-117"/>
      <use x="1171.431641" xlink:href="#DejaVuSans-101"/>
      <use x="1232.955078" xlink:href="#DejaVuSans-115"/>
     </g>
    </g>
   </g>
  </g>
 </g>
 <defs>
  <clipPath id="pd581c7bd5e">
   <rect height="252" width="253.636364" x="56.64375" y="28.396875"/>
  </clipPath>
  <clipPath id="pce47dbcc48">
   <rect height="252" width="253.636364" x="361.007386" y="28.396875"/>
  </clipPath>
  <clipPath id="p913cfa6e36">
   <rect height="252" width="253.636364" x="56.64375" y="330.796875"/>
  </clipPath>
  <clipPath id="p9fac4ed460">
   <rect height="252" width="253.636364" x="361.007386" y="330.796875"/>
  </clipPath>
 </defs>
</svg>
